%TF.GenerationSoftware,KiCad,Pcbnew,7.0.0*%
%TF.CreationDate,2023-04-11T16:47:49+02:00*%
%TF.ProjectId,udimm_interposer,7564696d-6d5f-4696-9e74-6572706f7365,A*%
%TF.SameCoordinates,Original*%
%TF.FileFunction,Legend,Bot*%
%TF.FilePolarity,Positive*%
%FSLAX46Y46*%
G04 Gerber Fmt 4.6, Leading zero omitted, Abs format (unit mm)*
G04 Created by KiCad (PCBNEW 7.0.0) date 2023-04-11 16:47:49*
%MOMM*%
%LPD*%
G01*
G04 APERTURE LIST*
G04 Aperture macros list*
%AMRoundRect*
0 Rectangle with rounded corners*
0 $1 Rounding radius*
0 $2 $3 $4 $5 $6 $7 $8 $9 X,Y pos of 4 corners*
0 Add a 4 corners polygon primitive as box body*
4,1,4,$2,$3,$4,$5,$6,$7,$8,$9,$2,$3,0*
0 Add four circle primitives for the rounded corners*
1,1,$1+$1,$2,$3*
1,1,$1+$1,$4,$5*
1,1,$1+$1,$6,$7*
1,1,$1+$1,$8,$9*
0 Add four rect primitives between the rounded corners*
20,1,$1+$1,$2,$3,$4,$5,0*
20,1,$1+$1,$4,$5,$6,$7,0*
20,1,$1+$1,$6,$7,$8,$9,0*
20,1,$1+$1,$8,$9,$2,$3,0*%
G04 Aperture macros list end*
%ADD10C,0.150000*%
%ADD11C,0.300000*%
%ADD12C,0.200000*%
%ADD13C,0.120000*%
%ADD14C,0.314000*%
%ADD15C,0.400000*%
%ADD16R,0.650000X0.400000*%
%ADD17R,0.520000X2.200000*%
%ADD18RoundRect,0.050000X0.075000X-0.225000X0.075000X0.225000X-0.075000X0.225000X-0.075000X-0.225000X0*%
%ADD19RoundRect,0.050000X0.050000X-0.225000X0.050000X0.225000X-0.050000X0.225000X-0.050000X-0.225000X0*%
%ADD20RoundRect,0.050000X-0.250000X-0.100000X0.250000X-0.100000X0.250000X0.100000X-0.250000X0.100000X0*%
%ADD21RoundRect,0.200000X-0.275000X0.200000X-0.275000X-0.200000X0.275000X-0.200000X0.275000X0.200000X0*%
%ADD22RoundRect,0.243750X0.456250X-0.243750X0.456250X0.243750X-0.456250X0.243750X-0.456250X-0.243750X0*%
%ADD23R,1.200000X0.600000*%
%ADD24R,1.400000X0.800000*%
G04 APERTURE END LIST*
D10*
X182810000Y-57140000D02*
X191810000Y-57140000D01*
X193260000Y-60540000D02*
X193260000Y-58890000D01*
X187460000Y-60490000D02*
X187460000Y-58840000D01*
X145530000Y-57240000D02*
X157230000Y-57240000D01*
X181510000Y-58840000D02*
X181510000Y-60540000D01*
X148380000Y-53740000D02*
X157230000Y-53740000D01*
X148380000Y-57240000D02*
X148380000Y-53740000D01*
X184460000Y-60540000D02*
X184460000Y-58890000D01*
X196410000Y-60540000D02*
X196410000Y-58840000D01*
X189010000Y-58840000D02*
X189010000Y-57190000D01*
X191810000Y-58740000D02*
X191810000Y-57140000D01*
X154180000Y-57240000D02*
X154180000Y-53740000D01*
X157230000Y-57240000D02*
X157230000Y-53740000D01*
X157230000Y-55490000D02*
X145530000Y-55490000D01*
X190410000Y-60540000D02*
X190410000Y-58840000D01*
X151380000Y-57240000D02*
X151380000Y-53740000D01*
X185660000Y-57140000D02*
X185660000Y-58790000D01*
X196410000Y-58840000D02*
X181510000Y-58840000D01*
X182810000Y-58840000D02*
X182810000Y-57140000D01*
X181510000Y-60540000D02*
X196410000Y-60540000D01*
X145530000Y-57240000D02*
X145530000Y-55490000D01*
D11*
X156249285Y-50640000D02*
X155535000Y-50640000D01*
X156392142Y-51068571D02*
X155892142Y-49568571D01*
X155892142Y-49568571D02*
X155392142Y-51068571D01*
D12*
X237740000Y-62201071D02*
X237740000Y-60701071D01*
X237740000Y-60701071D02*
X237382857Y-60701071D01*
X237382857Y-60701071D02*
X237168571Y-60772500D01*
X237168571Y-60772500D02*
X237025714Y-60915357D01*
X237025714Y-60915357D02*
X236954285Y-61058214D01*
X236954285Y-61058214D02*
X236882857Y-61343928D01*
X236882857Y-61343928D02*
X236882857Y-61558214D01*
X236882857Y-61558214D02*
X236954285Y-61843928D01*
X236954285Y-61843928D02*
X237025714Y-61986785D01*
X237025714Y-61986785D02*
X237168571Y-62129642D01*
X237168571Y-62129642D02*
X237382857Y-62201071D01*
X237382857Y-62201071D02*
X237740000Y-62201071D01*
X236240000Y-62201071D02*
X236240000Y-60701071D01*
X236240000Y-60701071D02*
X235882857Y-60701071D01*
X235882857Y-60701071D02*
X235668571Y-60772500D01*
X235668571Y-60772500D02*
X235525714Y-60915357D01*
X235525714Y-60915357D02*
X235454285Y-61058214D01*
X235454285Y-61058214D02*
X235382857Y-61343928D01*
X235382857Y-61343928D02*
X235382857Y-61558214D01*
X235382857Y-61558214D02*
X235454285Y-61843928D01*
X235454285Y-61843928D02*
X235525714Y-61986785D01*
X235525714Y-61986785D02*
X235668571Y-62129642D01*
X235668571Y-62129642D02*
X235882857Y-62201071D01*
X235882857Y-62201071D02*
X236240000Y-62201071D01*
X233882857Y-62201071D02*
X234382857Y-61486785D01*
X234740000Y-62201071D02*
X234740000Y-60701071D01*
X234740000Y-60701071D02*
X234168571Y-60701071D01*
X234168571Y-60701071D02*
X234025714Y-60772500D01*
X234025714Y-60772500D02*
X233954285Y-60843928D01*
X233954285Y-60843928D02*
X233882857Y-60986785D01*
X233882857Y-60986785D02*
X233882857Y-61201071D01*
X233882857Y-61201071D02*
X233954285Y-61343928D01*
X233954285Y-61343928D02*
X234025714Y-61415357D01*
X234025714Y-61415357D02*
X234168571Y-61486785D01*
X234168571Y-61486785D02*
X234740000Y-61486785D01*
X232525714Y-60701071D02*
X233240000Y-60701071D01*
X233240000Y-60701071D02*
X233311428Y-61415357D01*
X233311428Y-61415357D02*
X233240000Y-61343928D01*
X233240000Y-61343928D02*
X233097143Y-61272500D01*
X233097143Y-61272500D02*
X232740000Y-61272500D01*
X232740000Y-61272500D02*
X232597143Y-61343928D01*
X232597143Y-61343928D02*
X232525714Y-61415357D01*
X232525714Y-61415357D02*
X232454285Y-61558214D01*
X232454285Y-61558214D02*
X232454285Y-61915357D01*
X232454285Y-61915357D02*
X232525714Y-62058214D01*
X232525714Y-62058214D02*
X232597143Y-62129642D01*
X232597143Y-62129642D02*
X232740000Y-62201071D01*
X232740000Y-62201071D02*
X233097143Y-62201071D01*
X233097143Y-62201071D02*
X233240000Y-62129642D01*
X233240000Y-62129642D02*
X233311428Y-62058214D01*
X230911429Y-60701071D02*
X230911429Y-61915357D01*
X230911429Y-61915357D02*
X230840000Y-62058214D01*
X230840000Y-62058214D02*
X230768572Y-62129642D01*
X230768572Y-62129642D02*
X230625714Y-62201071D01*
X230625714Y-62201071D02*
X230340000Y-62201071D01*
X230340000Y-62201071D02*
X230197143Y-62129642D01*
X230197143Y-62129642D02*
X230125714Y-62058214D01*
X230125714Y-62058214D02*
X230054286Y-61915357D01*
X230054286Y-61915357D02*
X230054286Y-60701071D01*
X229340000Y-62201071D02*
X229340000Y-60701071D01*
X229340000Y-60701071D02*
X228982857Y-60701071D01*
X228982857Y-60701071D02*
X228768571Y-60772500D01*
X228768571Y-60772500D02*
X228625714Y-60915357D01*
X228625714Y-60915357D02*
X228554285Y-61058214D01*
X228554285Y-61058214D02*
X228482857Y-61343928D01*
X228482857Y-61343928D02*
X228482857Y-61558214D01*
X228482857Y-61558214D02*
X228554285Y-61843928D01*
X228554285Y-61843928D02*
X228625714Y-61986785D01*
X228625714Y-61986785D02*
X228768571Y-62129642D01*
X228768571Y-62129642D02*
X228982857Y-62201071D01*
X228982857Y-62201071D02*
X229340000Y-62201071D01*
X227840000Y-62201071D02*
X227840000Y-60701071D01*
X227125714Y-62201071D02*
X227125714Y-60701071D01*
X227125714Y-60701071D02*
X226625714Y-61772500D01*
X226625714Y-61772500D02*
X226125714Y-60701071D01*
X226125714Y-60701071D02*
X226125714Y-62201071D01*
X225411428Y-62201071D02*
X225411428Y-60701071D01*
X225411428Y-60701071D02*
X224911428Y-61772500D01*
X224911428Y-61772500D02*
X224411428Y-60701071D01*
X224411428Y-60701071D02*
X224411428Y-62201071D01*
X222297142Y-61415357D02*
X222797142Y-61415357D01*
X222797142Y-62201071D02*
X222797142Y-60701071D01*
X222797142Y-60701071D02*
X222082856Y-60701071D01*
X220868571Y-62201071D02*
X220868571Y-61415357D01*
X220868571Y-61415357D02*
X220939999Y-61272500D01*
X220939999Y-61272500D02*
X221082856Y-61201071D01*
X221082856Y-61201071D02*
X221368571Y-61201071D01*
X221368571Y-61201071D02*
X221511428Y-61272500D01*
X220868571Y-62129642D02*
X221011428Y-62201071D01*
X221011428Y-62201071D02*
X221368571Y-62201071D01*
X221368571Y-62201071D02*
X221511428Y-62129642D01*
X221511428Y-62129642D02*
X221582856Y-61986785D01*
X221582856Y-61986785D02*
X221582856Y-61843928D01*
X221582856Y-61843928D02*
X221511428Y-61701071D01*
X221511428Y-61701071D02*
X221368571Y-61629642D01*
X221368571Y-61629642D02*
X221011428Y-61629642D01*
X221011428Y-61629642D02*
X220868571Y-61558214D01*
X219511428Y-61201071D02*
X219511428Y-62201071D01*
X220154285Y-61201071D02*
X220154285Y-61986785D01*
X220154285Y-61986785D02*
X220082856Y-62129642D01*
X220082856Y-62129642D02*
X219939999Y-62201071D01*
X219939999Y-62201071D02*
X219725713Y-62201071D01*
X219725713Y-62201071D02*
X219582856Y-62129642D01*
X219582856Y-62129642D02*
X219511428Y-62058214D01*
X218582856Y-62201071D02*
X218725713Y-62129642D01*
X218725713Y-62129642D02*
X218797142Y-61986785D01*
X218797142Y-61986785D02*
X218797142Y-60701071D01*
X218225713Y-61201071D02*
X217654285Y-61201071D01*
X218011428Y-60701071D02*
X218011428Y-61986785D01*
X218011428Y-61986785D02*
X217939999Y-62129642D01*
X217939999Y-62129642D02*
X217797142Y-62201071D01*
X217797142Y-62201071D02*
X217654285Y-62201071D01*
X216254285Y-62201071D02*
X216254285Y-60701071D01*
X215539999Y-61201071D02*
X215539999Y-62201071D01*
X215539999Y-61343928D02*
X215468570Y-61272500D01*
X215468570Y-61272500D02*
X215325713Y-61201071D01*
X215325713Y-61201071D02*
X215111427Y-61201071D01*
X215111427Y-61201071D02*
X214968570Y-61272500D01*
X214968570Y-61272500D02*
X214897142Y-61415357D01*
X214897142Y-61415357D02*
X214897142Y-62201071D01*
X214182856Y-61201071D02*
X214182856Y-62486785D01*
X214182856Y-62486785D02*
X214254284Y-62629642D01*
X214254284Y-62629642D02*
X214397141Y-62701071D01*
X214397141Y-62701071D02*
X214468570Y-62701071D01*
X214182856Y-60701071D02*
X214254284Y-60772500D01*
X214254284Y-60772500D02*
X214182856Y-60843928D01*
X214182856Y-60843928D02*
X214111427Y-60772500D01*
X214111427Y-60772500D02*
X214182856Y-60701071D01*
X214182856Y-60701071D02*
X214182856Y-60843928D01*
X212897141Y-62129642D02*
X213039998Y-62201071D01*
X213039998Y-62201071D02*
X213325713Y-62201071D01*
X213325713Y-62201071D02*
X213468570Y-62129642D01*
X213468570Y-62129642D02*
X213539998Y-61986785D01*
X213539998Y-61986785D02*
X213539998Y-61415357D01*
X213539998Y-61415357D02*
X213468570Y-61272500D01*
X213468570Y-61272500D02*
X213325713Y-61201071D01*
X213325713Y-61201071D02*
X213039998Y-61201071D01*
X213039998Y-61201071D02*
X212897141Y-61272500D01*
X212897141Y-61272500D02*
X212825713Y-61415357D01*
X212825713Y-61415357D02*
X212825713Y-61558214D01*
X212825713Y-61558214D02*
X213539998Y-61701071D01*
X211539999Y-62129642D02*
X211682856Y-62201071D01*
X211682856Y-62201071D02*
X211968570Y-62201071D01*
X211968570Y-62201071D02*
X212111427Y-62129642D01*
X212111427Y-62129642D02*
X212182856Y-62058214D01*
X212182856Y-62058214D02*
X212254284Y-61915357D01*
X212254284Y-61915357D02*
X212254284Y-61486785D01*
X212254284Y-61486785D02*
X212182856Y-61343928D01*
X212182856Y-61343928D02*
X212111427Y-61272500D01*
X212111427Y-61272500D02*
X211968570Y-61201071D01*
X211968570Y-61201071D02*
X211682856Y-61201071D01*
X211682856Y-61201071D02*
X211539999Y-61272500D01*
X211111427Y-61201071D02*
X210539999Y-61201071D01*
X210897142Y-60701071D02*
X210897142Y-61986785D01*
X210897142Y-61986785D02*
X210825713Y-62129642D01*
X210825713Y-62129642D02*
X210682856Y-62201071D01*
X210682856Y-62201071D02*
X210539999Y-62201071D01*
X210039999Y-62201071D02*
X210039999Y-61201071D01*
X210039999Y-60701071D02*
X210111427Y-60772500D01*
X210111427Y-60772500D02*
X210039999Y-60843928D01*
X210039999Y-60843928D02*
X209968570Y-60772500D01*
X209968570Y-60772500D02*
X210039999Y-60701071D01*
X210039999Y-60701071D02*
X210039999Y-60843928D01*
X209111427Y-62201071D02*
X209254284Y-62129642D01*
X209254284Y-62129642D02*
X209325713Y-62058214D01*
X209325713Y-62058214D02*
X209397141Y-61915357D01*
X209397141Y-61915357D02*
X209397141Y-61486785D01*
X209397141Y-61486785D02*
X209325713Y-61343928D01*
X209325713Y-61343928D02*
X209254284Y-61272500D01*
X209254284Y-61272500D02*
X209111427Y-61201071D01*
X209111427Y-61201071D02*
X208897141Y-61201071D01*
X208897141Y-61201071D02*
X208754284Y-61272500D01*
X208754284Y-61272500D02*
X208682856Y-61343928D01*
X208682856Y-61343928D02*
X208611427Y-61486785D01*
X208611427Y-61486785D02*
X208611427Y-61915357D01*
X208611427Y-61915357D02*
X208682856Y-62058214D01*
X208682856Y-62058214D02*
X208754284Y-62129642D01*
X208754284Y-62129642D02*
X208897141Y-62201071D01*
X208897141Y-62201071D02*
X209111427Y-62201071D01*
X207968570Y-61201071D02*
X207968570Y-62201071D01*
X207968570Y-61343928D02*
X207897141Y-61272500D01*
X207897141Y-61272500D02*
X207754284Y-61201071D01*
X207754284Y-61201071D02*
X207539998Y-61201071D01*
X207539998Y-61201071D02*
X207397141Y-61272500D01*
X207397141Y-61272500D02*
X207325713Y-61415357D01*
X207325713Y-61415357D02*
X207325713Y-62201071D01*
X205711427Y-62201071D02*
X205711427Y-60701071D01*
X204997141Y-61201071D02*
X204997141Y-62201071D01*
X204997141Y-61343928D02*
X204925712Y-61272500D01*
X204925712Y-61272500D02*
X204782855Y-61201071D01*
X204782855Y-61201071D02*
X204568569Y-61201071D01*
X204568569Y-61201071D02*
X204425712Y-61272500D01*
X204425712Y-61272500D02*
X204354284Y-61415357D01*
X204354284Y-61415357D02*
X204354284Y-62201071D01*
X203854283Y-61201071D02*
X203282855Y-61201071D01*
X203639998Y-60701071D02*
X203639998Y-61986785D01*
X203639998Y-61986785D02*
X203568569Y-62129642D01*
X203568569Y-62129642D02*
X203425712Y-62201071D01*
X203425712Y-62201071D02*
X203282855Y-62201071D01*
X202211426Y-62129642D02*
X202354283Y-62201071D01*
X202354283Y-62201071D02*
X202639998Y-62201071D01*
X202639998Y-62201071D02*
X202782855Y-62129642D01*
X202782855Y-62129642D02*
X202854283Y-61986785D01*
X202854283Y-61986785D02*
X202854283Y-61415357D01*
X202854283Y-61415357D02*
X202782855Y-61272500D01*
X202782855Y-61272500D02*
X202639998Y-61201071D01*
X202639998Y-61201071D02*
X202354283Y-61201071D01*
X202354283Y-61201071D02*
X202211426Y-61272500D01*
X202211426Y-61272500D02*
X202139998Y-61415357D01*
X202139998Y-61415357D02*
X202139998Y-61558214D01*
X202139998Y-61558214D02*
X202854283Y-61701071D01*
X201497141Y-62201071D02*
X201497141Y-61201071D01*
X201497141Y-61486785D02*
X201425712Y-61343928D01*
X201425712Y-61343928D02*
X201354284Y-61272500D01*
X201354284Y-61272500D02*
X201211426Y-61201071D01*
X201211426Y-61201071D02*
X201068569Y-61201071D01*
X200568570Y-61201071D02*
X200568570Y-62701071D01*
X200568570Y-61272500D02*
X200425713Y-61201071D01*
X200425713Y-61201071D02*
X200139998Y-61201071D01*
X200139998Y-61201071D02*
X199997141Y-61272500D01*
X199997141Y-61272500D02*
X199925713Y-61343928D01*
X199925713Y-61343928D02*
X199854284Y-61486785D01*
X199854284Y-61486785D02*
X199854284Y-61915357D01*
X199854284Y-61915357D02*
X199925713Y-62058214D01*
X199925713Y-62058214D02*
X199997141Y-62129642D01*
X199997141Y-62129642D02*
X200139998Y-62201071D01*
X200139998Y-62201071D02*
X200425713Y-62201071D01*
X200425713Y-62201071D02*
X200568570Y-62129642D01*
X198997141Y-62201071D02*
X199139998Y-62129642D01*
X199139998Y-62129642D02*
X199211427Y-62058214D01*
X199211427Y-62058214D02*
X199282855Y-61915357D01*
X199282855Y-61915357D02*
X199282855Y-61486785D01*
X199282855Y-61486785D02*
X199211427Y-61343928D01*
X199211427Y-61343928D02*
X199139998Y-61272500D01*
X199139998Y-61272500D02*
X198997141Y-61201071D01*
X198997141Y-61201071D02*
X198782855Y-61201071D01*
X198782855Y-61201071D02*
X198639998Y-61272500D01*
X198639998Y-61272500D02*
X198568570Y-61343928D01*
X198568570Y-61343928D02*
X198497141Y-61486785D01*
X198497141Y-61486785D02*
X198497141Y-61915357D01*
X198497141Y-61915357D02*
X198568570Y-62058214D01*
X198568570Y-62058214D02*
X198639998Y-62129642D01*
X198639998Y-62129642D02*
X198782855Y-62201071D01*
X198782855Y-62201071D02*
X198997141Y-62201071D01*
X197925712Y-62129642D02*
X197782855Y-62201071D01*
X197782855Y-62201071D02*
X197497141Y-62201071D01*
X197497141Y-62201071D02*
X197354284Y-62129642D01*
X197354284Y-62129642D02*
X197282855Y-61986785D01*
X197282855Y-61986785D02*
X197282855Y-61915357D01*
X197282855Y-61915357D02*
X197354284Y-61772500D01*
X197354284Y-61772500D02*
X197497141Y-61701071D01*
X197497141Y-61701071D02*
X197711427Y-61701071D01*
X197711427Y-61701071D02*
X197854284Y-61629642D01*
X197854284Y-61629642D02*
X197925712Y-61486785D01*
X197925712Y-61486785D02*
X197925712Y-61415357D01*
X197925712Y-61415357D02*
X197854284Y-61272500D01*
X197854284Y-61272500D02*
X197711427Y-61201071D01*
X197711427Y-61201071D02*
X197497141Y-61201071D01*
X197497141Y-61201071D02*
X197354284Y-61272500D01*
X196068569Y-62129642D02*
X196211426Y-62201071D01*
X196211426Y-62201071D02*
X196497141Y-62201071D01*
X196497141Y-62201071D02*
X196639998Y-62129642D01*
X196639998Y-62129642D02*
X196711426Y-61986785D01*
X196711426Y-61986785D02*
X196711426Y-61415357D01*
X196711426Y-61415357D02*
X196639998Y-61272500D01*
X196639998Y-61272500D02*
X196497141Y-61201071D01*
X196497141Y-61201071D02*
X196211426Y-61201071D01*
X196211426Y-61201071D02*
X196068569Y-61272500D01*
X196068569Y-61272500D02*
X195997141Y-61415357D01*
X195997141Y-61415357D02*
X195997141Y-61558214D01*
X195997141Y-61558214D02*
X196711426Y-61701071D01*
X195354284Y-62201071D02*
X195354284Y-61201071D01*
X195354284Y-61486785D02*
X195282855Y-61343928D01*
X195282855Y-61343928D02*
X195211427Y-61272500D01*
X195211427Y-61272500D02*
X195068569Y-61201071D01*
X195068569Y-61201071D02*
X194925712Y-61201071D01*
D11*
X189737857Y-51062857D02*
X189523571Y-51134285D01*
X189523571Y-51134285D02*
X189452142Y-51205714D01*
X189452142Y-51205714D02*
X189380714Y-51348571D01*
X189380714Y-51348571D02*
X189380714Y-51562857D01*
X189380714Y-51562857D02*
X189452142Y-51705714D01*
X189452142Y-51705714D02*
X189523571Y-51777142D01*
X189523571Y-51777142D02*
X189666428Y-51848571D01*
X189666428Y-51848571D02*
X190237857Y-51848571D01*
X190237857Y-51848571D02*
X190237857Y-50348571D01*
X190237857Y-50348571D02*
X189737857Y-50348571D01*
X189737857Y-50348571D02*
X189595000Y-50420000D01*
X189595000Y-50420000D02*
X189523571Y-50491428D01*
X189523571Y-50491428D02*
X189452142Y-50634285D01*
X189452142Y-50634285D02*
X189452142Y-50777142D01*
X189452142Y-50777142D02*
X189523571Y-50920000D01*
X189523571Y-50920000D02*
X189595000Y-50991428D01*
X189595000Y-50991428D02*
X189737857Y-51062857D01*
X189737857Y-51062857D02*
X190237857Y-51062857D01*
D10*
%TO.C,U28*%
X156695475Y-54203904D02*
X156695475Y-54851523D01*
X156695475Y-54851523D02*
X156657380Y-54927714D01*
X156657380Y-54927714D02*
X156619285Y-54965809D01*
X156619285Y-54965809D02*
X156543094Y-55003904D01*
X156543094Y-55003904D02*
X156390713Y-55003904D01*
X156390713Y-55003904D02*
X156314523Y-54965809D01*
X156314523Y-54965809D02*
X156276428Y-54927714D01*
X156276428Y-54927714D02*
X156238332Y-54851523D01*
X156238332Y-54851523D02*
X156238332Y-54203904D01*
X155895476Y-54280095D02*
X155857380Y-54242000D01*
X155857380Y-54242000D02*
X155781190Y-54203904D01*
X155781190Y-54203904D02*
X155590714Y-54203904D01*
X155590714Y-54203904D02*
X155514523Y-54242000D01*
X155514523Y-54242000D02*
X155476428Y-54280095D01*
X155476428Y-54280095D02*
X155438333Y-54356285D01*
X155438333Y-54356285D02*
X155438333Y-54432476D01*
X155438333Y-54432476D02*
X155476428Y-54546761D01*
X155476428Y-54546761D02*
X155933571Y-55003904D01*
X155933571Y-55003904D02*
X155438333Y-55003904D01*
X154981190Y-54546761D02*
X155057380Y-54508666D01*
X155057380Y-54508666D02*
X155095475Y-54470571D01*
X155095475Y-54470571D02*
X155133571Y-54394380D01*
X155133571Y-54394380D02*
X155133571Y-54356285D01*
X155133571Y-54356285D02*
X155095475Y-54280095D01*
X155095475Y-54280095D02*
X155057380Y-54242000D01*
X155057380Y-54242000D02*
X154981190Y-54203904D01*
X154981190Y-54203904D02*
X154828809Y-54203904D01*
X154828809Y-54203904D02*
X154752618Y-54242000D01*
X154752618Y-54242000D02*
X154714523Y-54280095D01*
X154714523Y-54280095D02*
X154676428Y-54356285D01*
X154676428Y-54356285D02*
X154676428Y-54394380D01*
X154676428Y-54394380D02*
X154714523Y-54470571D01*
X154714523Y-54470571D02*
X154752618Y-54508666D01*
X154752618Y-54508666D02*
X154828809Y-54546761D01*
X154828809Y-54546761D02*
X154981190Y-54546761D01*
X154981190Y-54546761D02*
X155057380Y-54584857D01*
X155057380Y-54584857D02*
X155095475Y-54622952D01*
X155095475Y-54622952D02*
X155133571Y-54699142D01*
X155133571Y-54699142D02*
X155133571Y-54851523D01*
X155133571Y-54851523D02*
X155095475Y-54927714D01*
X155095475Y-54927714D02*
X155057380Y-54965809D01*
X155057380Y-54965809D02*
X154981190Y-55003904D01*
X154981190Y-55003904D02*
X154828809Y-55003904D01*
X154828809Y-55003904D02*
X154752618Y-54965809D01*
X154752618Y-54965809D02*
X154714523Y-54927714D01*
X154714523Y-54927714D02*
X154676428Y-54851523D01*
X154676428Y-54851523D02*
X154676428Y-54699142D01*
X154676428Y-54699142D02*
X154714523Y-54622952D01*
X154714523Y-54622952D02*
X154752618Y-54584857D01*
X154752618Y-54584857D02*
X154828809Y-54546761D01*
%TO.C,U12*%
X190097475Y-59281904D02*
X190097475Y-59929523D01*
X190097475Y-59929523D02*
X190059380Y-60005714D01*
X190059380Y-60005714D02*
X190021285Y-60043809D01*
X190021285Y-60043809D02*
X189945094Y-60081904D01*
X189945094Y-60081904D02*
X189792713Y-60081904D01*
X189792713Y-60081904D02*
X189716523Y-60043809D01*
X189716523Y-60043809D02*
X189678428Y-60005714D01*
X189678428Y-60005714D02*
X189640332Y-59929523D01*
X189640332Y-59929523D02*
X189640332Y-59281904D01*
X188840333Y-60081904D02*
X189297476Y-60081904D01*
X189068904Y-60081904D02*
X189068904Y-59281904D01*
X189068904Y-59281904D02*
X189145095Y-59396190D01*
X189145095Y-59396190D02*
X189221285Y-59472380D01*
X189221285Y-59472380D02*
X189297476Y-59510476D01*
X188535571Y-59358095D02*
X188497475Y-59320000D01*
X188497475Y-59320000D02*
X188421285Y-59281904D01*
X188421285Y-59281904D02*
X188230809Y-59281904D01*
X188230809Y-59281904D02*
X188154618Y-59320000D01*
X188154618Y-59320000D02*
X188116523Y-59358095D01*
X188116523Y-59358095D02*
X188078428Y-59434285D01*
X188078428Y-59434285D02*
X188078428Y-59510476D01*
X188078428Y-59510476D02*
X188116523Y-59624761D01*
X188116523Y-59624761D02*
X188573666Y-60081904D01*
X188573666Y-60081904D02*
X188078428Y-60081904D01*
%TO.C,U26*%
X192867475Y-59268904D02*
X192867475Y-59916523D01*
X192867475Y-59916523D02*
X192829380Y-59992714D01*
X192829380Y-59992714D02*
X192791285Y-60030809D01*
X192791285Y-60030809D02*
X192715094Y-60068904D01*
X192715094Y-60068904D02*
X192562713Y-60068904D01*
X192562713Y-60068904D02*
X192486523Y-60030809D01*
X192486523Y-60030809D02*
X192448428Y-59992714D01*
X192448428Y-59992714D02*
X192410332Y-59916523D01*
X192410332Y-59916523D02*
X192410332Y-59268904D01*
X192067476Y-59345095D02*
X192029380Y-59307000D01*
X192029380Y-59307000D02*
X191953190Y-59268904D01*
X191953190Y-59268904D02*
X191762714Y-59268904D01*
X191762714Y-59268904D02*
X191686523Y-59307000D01*
X191686523Y-59307000D02*
X191648428Y-59345095D01*
X191648428Y-59345095D02*
X191610333Y-59421285D01*
X191610333Y-59421285D02*
X191610333Y-59497476D01*
X191610333Y-59497476D02*
X191648428Y-59611761D01*
X191648428Y-59611761D02*
X192105571Y-60068904D01*
X192105571Y-60068904D02*
X191610333Y-60068904D01*
X190924618Y-59268904D02*
X191076999Y-59268904D01*
X191076999Y-59268904D02*
X191153190Y-59307000D01*
X191153190Y-59307000D02*
X191191285Y-59345095D01*
X191191285Y-59345095D02*
X191267475Y-59459380D01*
X191267475Y-59459380D02*
X191305571Y-59611761D01*
X191305571Y-59611761D02*
X191305571Y-59916523D01*
X191305571Y-59916523D02*
X191267475Y-59992714D01*
X191267475Y-59992714D02*
X191229380Y-60030809D01*
X191229380Y-60030809D02*
X191153190Y-60068904D01*
X191153190Y-60068904D02*
X191000809Y-60068904D01*
X191000809Y-60068904D02*
X190924618Y-60030809D01*
X190924618Y-60030809D02*
X190886523Y-59992714D01*
X190886523Y-59992714D02*
X190848428Y-59916523D01*
X190848428Y-59916523D02*
X190848428Y-59726047D01*
X190848428Y-59726047D02*
X190886523Y-59649857D01*
X190886523Y-59649857D02*
X190924618Y-59611761D01*
X190924618Y-59611761D02*
X191000809Y-59573666D01*
X191000809Y-59573666D02*
X191153190Y-59573666D01*
X191153190Y-59573666D02*
X191229380Y-59611761D01*
X191229380Y-59611761D02*
X191267475Y-59649857D01*
X191267475Y-59649857D02*
X191305571Y-59726047D01*
%TO.C,U21*%
X153695475Y-55903904D02*
X153695475Y-56551523D01*
X153695475Y-56551523D02*
X153657380Y-56627714D01*
X153657380Y-56627714D02*
X153619285Y-56665809D01*
X153619285Y-56665809D02*
X153543094Y-56703904D01*
X153543094Y-56703904D02*
X153390713Y-56703904D01*
X153390713Y-56703904D02*
X153314523Y-56665809D01*
X153314523Y-56665809D02*
X153276428Y-56627714D01*
X153276428Y-56627714D02*
X153238332Y-56551523D01*
X153238332Y-56551523D02*
X153238332Y-55903904D01*
X152895476Y-55980095D02*
X152857380Y-55942000D01*
X152857380Y-55942000D02*
X152781190Y-55903904D01*
X152781190Y-55903904D02*
X152590714Y-55903904D01*
X152590714Y-55903904D02*
X152514523Y-55942000D01*
X152514523Y-55942000D02*
X152476428Y-55980095D01*
X152476428Y-55980095D02*
X152438333Y-56056285D01*
X152438333Y-56056285D02*
X152438333Y-56132476D01*
X152438333Y-56132476D02*
X152476428Y-56246761D01*
X152476428Y-56246761D02*
X152933571Y-56703904D01*
X152933571Y-56703904D02*
X152438333Y-56703904D01*
X151676428Y-56703904D02*
X152133571Y-56703904D01*
X151904999Y-56703904D02*
X151904999Y-55903904D01*
X151904999Y-55903904D02*
X151981190Y-56018190D01*
X151981190Y-56018190D02*
X152057380Y-56094380D01*
X152057380Y-56094380D02*
X152133571Y-56132476D01*
%TO.C,R1*%
X173493332Y-50053904D02*
X173759999Y-49672952D01*
X173950475Y-50053904D02*
X173950475Y-49253904D01*
X173950475Y-49253904D02*
X173645713Y-49253904D01*
X173645713Y-49253904D02*
X173569523Y-49292000D01*
X173569523Y-49292000D02*
X173531428Y-49330095D01*
X173531428Y-49330095D02*
X173493332Y-49406285D01*
X173493332Y-49406285D02*
X173493332Y-49520571D01*
X173493332Y-49520571D02*
X173531428Y-49596761D01*
X173531428Y-49596761D02*
X173569523Y-49634857D01*
X173569523Y-49634857D02*
X173645713Y-49672952D01*
X173645713Y-49672952D02*
X173950475Y-49672952D01*
X172731428Y-50053904D02*
X173188571Y-50053904D01*
X172959999Y-50053904D02*
X172959999Y-49253904D01*
X172959999Y-49253904D02*
X173036190Y-49368190D01*
X173036190Y-49368190D02*
X173112380Y-49444380D01*
X173112380Y-49444380D02*
X173188571Y-49482476D01*
%TO.C,U6*%
X184856523Y-57585904D02*
X184856523Y-58233523D01*
X184856523Y-58233523D02*
X184818428Y-58309714D01*
X184818428Y-58309714D02*
X184780333Y-58347809D01*
X184780333Y-58347809D02*
X184704142Y-58385904D01*
X184704142Y-58385904D02*
X184551761Y-58385904D01*
X184551761Y-58385904D02*
X184475571Y-58347809D01*
X184475571Y-58347809D02*
X184437476Y-58309714D01*
X184437476Y-58309714D02*
X184399380Y-58233523D01*
X184399380Y-58233523D02*
X184399380Y-57585904D01*
X183675571Y-57585904D02*
X183827952Y-57585904D01*
X183827952Y-57585904D02*
X183904143Y-57624000D01*
X183904143Y-57624000D02*
X183942238Y-57662095D01*
X183942238Y-57662095D02*
X184018428Y-57776380D01*
X184018428Y-57776380D02*
X184056524Y-57928761D01*
X184056524Y-57928761D02*
X184056524Y-58233523D01*
X184056524Y-58233523D02*
X184018428Y-58309714D01*
X184018428Y-58309714D02*
X183980333Y-58347809D01*
X183980333Y-58347809D02*
X183904143Y-58385904D01*
X183904143Y-58385904D02*
X183751762Y-58385904D01*
X183751762Y-58385904D02*
X183675571Y-58347809D01*
X183675571Y-58347809D02*
X183637476Y-58309714D01*
X183637476Y-58309714D02*
X183599381Y-58233523D01*
X183599381Y-58233523D02*
X183599381Y-58043047D01*
X183599381Y-58043047D02*
X183637476Y-57966857D01*
X183637476Y-57966857D02*
X183675571Y-57928761D01*
X183675571Y-57928761D02*
X183751762Y-57890666D01*
X183751762Y-57890666D02*
X183904143Y-57890666D01*
X183904143Y-57890666D02*
X183980333Y-57928761D01*
X183980333Y-57928761D02*
X184018428Y-57966857D01*
X184018428Y-57966857D02*
X184056524Y-58043047D01*
%TO.C,U17*%
X150840475Y-55943904D02*
X150840475Y-56591523D01*
X150840475Y-56591523D02*
X150802380Y-56667714D01*
X150802380Y-56667714D02*
X150764285Y-56705809D01*
X150764285Y-56705809D02*
X150688094Y-56743904D01*
X150688094Y-56743904D02*
X150535713Y-56743904D01*
X150535713Y-56743904D02*
X150459523Y-56705809D01*
X150459523Y-56705809D02*
X150421428Y-56667714D01*
X150421428Y-56667714D02*
X150383332Y-56591523D01*
X150383332Y-56591523D02*
X150383332Y-55943904D01*
X149583333Y-56743904D02*
X150040476Y-56743904D01*
X149811904Y-56743904D02*
X149811904Y-55943904D01*
X149811904Y-55943904D02*
X149888095Y-56058190D01*
X149888095Y-56058190D02*
X149964285Y-56134380D01*
X149964285Y-56134380D02*
X150040476Y-56172476D01*
X149316666Y-55943904D02*
X148783332Y-55943904D01*
X148783332Y-55943904D02*
X149126190Y-56743904D01*
%TO.C,U15*%
X150845475Y-54183904D02*
X150845475Y-54831523D01*
X150845475Y-54831523D02*
X150807380Y-54907714D01*
X150807380Y-54907714D02*
X150769285Y-54945809D01*
X150769285Y-54945809D02*
X150693094Y-54983904D01*
X150693094Y-54983904D02*
X150540713Y-54983904D01*
X150540713Y-54983904D02*
X150464523Y-54945809D01*
X150464523Y-54945809D02*
X150426428Y-54907714D01*
X150426428Y-54907714D02*
X150388332Y-54831523D01*
X150388332Y-54831523D02*
X150388332Y-54183904D01*
X149588333Y-54983904D02*
X150045476Y-54983904D01*
X149816904Y-54983904D02*
X149816904Y-54183904D01*
X149816904Y-54183904D02*
X149893095Y-54298190D01*
X149893095Y-54298190D02*
X149969285Y-54374380D01*
X149969285Y-54374380D02*
X150045476Y-54412476D01*
X148864523Y-54183904D02*
X149245475Y-54183904D01*
X149245475Y-54183904D02*
X149283571Y-54564857D01*
X149283571Y-54564857D02*
X149245475Y-54526761D01*
X149245475Y-54526761D02*
X149169285Y-54488666D01*
X149169285Y-54488666D02*
X148978809Y-54488666D01*
X148978809Y-54488666D02*
X148902618Y-54526761D01*
X148902618Y-54526761D02*
X148864523Y-54564857D01*
X148864523Y-54564857D02*
X148826428Y-54641047D01*
X148826428Y-54641047D02*
X148826428Y-54831523D01*
X148826428Y-54831523D02*
X148864523Y-54907714D01*
X148864523Y-54907714D02*
X148902618Y-54945809D01*
X148902618Y-54945809D02*
X148978809Y-54983904D01*
X148978809Y-54983904D02*
X149169285Y-54983904D01*
X149169285Y-54983904D02*
X149245475Y-54945809D01*
X149245475Y-54945809D02*
X149283571Y-54907714D01*
%TO.C,U30*%
X156745475Y-55903904D02*
X156745475Y-56551523D01*
X156745475Y-56551523D02*
X156707380Y-56627714D01*
X156707380Y-56627714D02*
X156669285Y-56665809D01*
X156669285Y-56665809D02*
X156593094Y-56703904D01*
X156593094Y-56703904D02*
X156440713Y-56703904D01*
X156440713Y-56703904D02*
X156364523Y-56665809D01*
X156364523Y-56665809D02*
X156326428Y-56627714D01*
X156326428Y-56627714D02*
X156288332Y-56551523D01*
X156288332Y-56551523D02*
X156288332Y-55903904D01*
X155983571Y-55903904D02*
X155488333Y-55903904D01*
X155488333Y-55903904D02*
X155754999Y-56208666D01*
X155754999Y-56208666D02*
X155640714Y-56208666D01*
X155640714Y-56208666D02*
X155564523Y-56246761D01*
X155564523Y-56246761D02*
X155526428Y-56284857D01*
X155526428Y-56284857D02*
X155488333Y-56361047D01*
X155488333Y-56361047D02*
X155488333Y-56551523D01*
X155488333Y-56551523D02*
X155526428Y-56627714D01*
X155526428Y-56627714D02*
X155564523Y-56665809D01*
X155564523Y-56665809D02*
X155640714Y-56703904D01*
X155640714Y-56703904D02*
X155869285Y-56703904D01*
X155869285Y-56703904D02*
X155945476Y-56665809D01*
X155945476Y-56665809D02*
X155983571Y-56627714D01*
X154993094Y-55903904D02*
X154916904Y-55903904D01*
X154916904Y-55903904D02*
X154840713Y-55942000D01*
X154840713Y-55942000D02*
X154802618Y-55980095D01*
X154802618Y-55980095D02*
X154764523Y-56056285D01*
X154764523Y-56056285D02*
X154726428Y-56208666D01*
X154726428Y-56208666D02*
X154726428Y-56399142D01*
X154726428Y-56399142D02*
X154764523Y-56551523D01*
X154764523Y-56551523D02*
X154802618Y-56627714D01*
X154802618Y-56627714D02*
X154840713Y-56665809D01*
X154840713Y-56665809D02*
X154916904Y-56703904D01*
X154916904Y-56703904D02*
X154993094Y-56703904D01*
X154993094Y-56703904D02*
X155069285Y-56665809D01*
X155069285Y-56665809D02*
X155107380Y-56627714D01*
X155107380Y-56627714D02*
X155145475Y-56551523D01*
X155145475Y-56551523D02*
X155183571Y-56399142D01*
X155183571Y-56399142D02*
X155183571Y-56208666D01*
X155183571Y-56208666D02*
X155145475Y-56056285D01*
X155145475Y-56056285D02*
X155107380Y-55980095D01*
X155107380Y-55980095D02*
X155069285Y-55942000D01*
X155069285Y-55942000D02*
X154993094Y-55903904D01*
%TO.C,U19*%
X153845475Y-54203904D02*
X153845475Y-54851523D01*
X153845475Y-54851523D02*
X153807380Y-54927714D01*
X153807380Y-54927714D02*
X153769285Y-54965809D01*
X153769285Y-54965809D02*
X153693094Y-55003904D01*
X153693094Y-55003904D02*
X153540713Y-55003904D01*
X153540713Y-55003904D02*
X153464523Y-54965809D01*
X153464523Y-54965809D02*
X153426428Y-54927714D01*
X153426428Y-54927714D02*
X153388332Y-54851523D01*
X153388332Y-54851523D02*
X153388332Y-54203904D01*
X152588333Y-55003904D02*
X153045476Y-55003904D01*
X152816904Y-55003904D02*
X152816904Y-54203904D01*
X152816904Y-54203904D02*
X152893095Y-54318190D01*
X152893095Y-54318190D02*
X152969285Y-54394380D01*
X152969285Y-54394380D02*
X153045476Y-54432476D01*
X152207380Y-55003904D02*
X152054999Y-55003904D01*
X152054999Y-55003904D02*
X151978809Y-54965809D01*
X151978809Y-54965809D02*
X151940713Y-54927714D01*
X151940713Y-54927714D02*
X151864523Y-54813428D01*
X151864523Y-54813428D02*
X151826428Y-54661047D01*
X151826428Y-54661047D02*
X151826428Y-54356285D01*
X151826428Y-54356285D02*
X151864523Y-54280095D01*
X151864523Y-54280095D02*
X151902618Y-54242000D01*
X151902618Y-54242000D02*
X151978809Y-54203904D01*
X151978809Y-54203904D02*
X152131190Y-54203904D01*
X152131190Y-54203904D02*
X152207380Y-54242000D01*
X152207380Y-54242000D02*
X152245475Y-54280095D01*
X152245475Y-54280095D02*
X152283571Y-54356285D01*
X152283571Y-54356285D02*
X152283571Y-54546761D01*
X152283571Y-54546761D02*
X152245475Y-54622952D01*
X152245475Y-54622952D02*
X152207380Y-54661047D01*
X152207380Y-54661047D02*
X152131190Y-54699142D01*
X152131190Y-54699142D02*
X151978809Y-54699142D01*
X151978809Y-54699142D02*
X151902618Y-54661047D01*
X151902618Y-54661047D02*
X151864523Y-54622952D01*
X151864523Y-54622952D02*
X151826428Y-54546761D01*
%TO.C,U24*%
X191332475Y-57456904D02*
X191332475Y-58104523D01*
X191332475Y-58104523D02*
X191294380Y-58180714D01*
X191294380Y-58180714D02*
X191256285Y-58218809D01*
X191256285Y-58218809D02*
X191180094Y-58256904D01*
X191180094Y-58256904D02*
X191027713Y-58256904D01*
X191027713Y-58256904D02*
X190951523Y-58218809D01*
X190951523Y-58218809D02*
X190913428Y-58180714D01*
X190913428Y-58180714D02*
X190875332Y-58104523D01*
X190875332Y-58104523D02*
X190875332Y-57456904D01*
X190532476Y-57533095D02*
X190494380Y-57495000D01*
X190494380Y-57495000D02*
X190418190Y-57456904D01*
X190418190Y-57456904D02*
X190227714Y-57456904D01*
X190227714Y-57456904D02*
X190151523Y-57495000D01*
X190151523Y-57495000D02*
X190113428Y-57533095D01*
X190113428Y-57533095D02*
X190075333Y-57609285D01*
X190075333Y-57609285D02*
X190075333Y-57685476D01*
X190075333Y-57685476D02*
X190113428Y-57799761D01*
X190113428Y-57799761D02*
X190570571Y-58256904D01*
X190570571Y-58256904D02*
X190075333Y-58256904D01*
X189389618Y-57723571D02*
X189389618Y-58256904D01*
X189580094Y-57418809D02*
X189770571Y-57990238D01*
X189770571Y-57990238D02*
X189275332Y-57990238D01*
%TO.C,U33*%
X183912475Y-59285904D02*
X183912475Y-59933523D01*
X183912475Y-59933523D02*
X183874380Y-60009714D01*
X183874380Y-60009714D02*
X183836285Y-60047809D01*
X183836285Y-60047809D02*
X183760094Y-60085904D01*
X183760094Y-60085904D02*
X183607713Y-60085904D01*
X183607713Y-60085904D02*
X183531523Y-60047809D01*
X183531523Y-60047809D02*
X183493428Y-60009714D01*
X183493428Y-60009714D02*
X183455332Y-59933523D01*
X183455332Y-59933523D02*
X183455332Y-59285904D01*
X183150571Y-59285904D02*
X182655333Y-59285904D01*
X182655333Y-59285904D02*
X182921999Y-59590666D01*
X182921999Y-59590666D02*
X182807714Y-59590666D01*
X182807714Y-59590666D02*
X182731523Y-59628761D01*
X182731523Y-59628761D02*
X182693428Y-59666857D01*
X182693428Y-59666857D02*
X182655333Y-59743047D01*
X182655333Y-59743047D02*
X182655333Y-59933523D01*
X182655333Y-59933523D02*
X182693428Y-60009714D01*
X182693428Y-60009714D02*
X182731523Y-60047809D01*
X182731523Y-60047809D02*
X182807714Y-60085904D01*
X182807714Y-60085904D02*
X183036285Y-60085904D01*
X183036285Y-60085904D02*
X183112476Y-60047809D01*
X183112476Y-60047809D02*
X183150571Y-60009714D01*
X182388666Y-59285904D02*
X181893428Y-59285904D01*
X181893428Y-59285904D02*
X182160094Y-59590666D01*
X182160094Y-59590666D02*
X182045809Y-59590666D01*
X182045809Y-59590666D02*
X181969618Y-59628761D01*
X181969618Y-59628761D02*
X181931523Y-59666857D01*
X181931523Y-59666857D02*
X181893428Y-59743047D01*
X181893428Y-59743047D02*
X181893428Y-59933523D01*
X181893428Y-59933523D02*
X181931523Y-60009714D01*
X181931523Y-60009714D02*
X181969618Y-60047809D01*
X181969618Y-60047809D02*
X182045809Y-60085904D01*
X182045809Y-60085904D02*
X182274380Y-60085904D01*
X182274380Y-60085904D02*
X182350571Y-60047809D01*
X182350571Y-60047809D02*
X182388666Y-60009714D01*
%TO.C,D1*%
X172790475Y-55918904D02*
X172790475Y-55118904D01*
X172790475Y-55118904D02*
X172599999Y-55118904D01*
X172599999Y-55118904D02*
X172485713Y-55157000D01*
X172485713Y-55157000D02*
X172409523Y-55233190D01*
X172409523Y-55233190D02*
X172371428Y-55309380D01*
X172371428Y-55309380D02*
X172333332Y-55461761D01*
X172333332Y-55461761D02*
X172333332Y-55576047D01*
X172333332Y-55576047D02*
X172371428Y-55728428D01*
X172371428Y-55728428D02*
X172409523Y-55804619D01*
X172409523Y-55804619D02*
X172485713Y-55880809D01*
X172485713Y-55880809D02*
X172599999Y-55918904D01*
X172599999Y-55918904D02*
X172790475Y-55918904D01*
X171571428Y-55918904D02*
X172028571Y-55918904D01*
X171799999Y-55918904D02*
X171799999Y-55118904D01*
X171799999Y-55118904D02*
X171876190Y-55233190D01*
X171876190Y-55233190D02*
X171952380Y-55309380D01*
X171952380Y-55309380D02*
X172028571Y-55347476D01*
%TO.C,U10*%
X188262475Y-57494904D02*
X188262475Y-58142523D01*
X188262475Y-58142523D02*
X188224380Y-58218714D01*
X188224380Y-58218714D02*
X188186285Y-58256809D01*
X188186285Y-58256809D02*
X188110094Y-58294904D01*
X188110094Y-58294904D02*
X187957713Y-58294904D01*
X187957713Y-58294904D02*
X187881523Y-58256809D01*
X187881523Y-58256809D02*
X187843428Y-58218714D01*
X187843428Y-58218714D02*
X187805332Y-58142523D01*
X187805332Y-58142523D02*
X187805332Y-57494904D01*
X187005333Y-58294904D02*
X187462476Y-58294904D01*
X187233904Y-58294904D02*
X187233904Y-57494904D01*
X187233904Y-57494904D02*
X187310095Y-57609190D01*
X187310095Y-57609190D02*
X187386285Y-57685380D01*
X187386285Y-57685380D02*
X187462476Y-57723476D01*
X186510094Y-57494904D02*
X186433904Y-57494904D01*
X186433904Y-57494904D02*
X186357713Y-57533000D01*
X186357713Y-57533000D02*
X186319618Y-57571095D01*
X186319618Y-57571095D02*
X186281523Y-57647285D01*
X186281523Y-57647285D02*
X186243428Y-57799666D01*
X186243428Y-57799666D02*
X186243428Y-57990142D01*
X186243428Y-57990142D02*
X186281523Y-58142523D01*
X186281523Y-58142523D02*
X186319618Y-58218714D01*
X186319618Y-58218714D02*
X186357713Y-58256809D01*
X186357713Y-58256809D02*
X186433904Y-58294904D01*
X186433904Y-58294904D02*
X186510094Y-58294904D01*
X186510094Y-58294904D02*
X186586285Y-58256809D01*
X186586285Y-58256809D02*
X186624380Y-58218714D01*
X186624380Y-58218714D02*
X186662475Y-58142523D01*
X186662475Y-58142523D02*
X186700571Y-57990142D01*
X186700571Y-57990142D02*
X186700571Y-57799666D01*
X186700571Y-57799666D02*
X186662475Y-57647285D01*
X186662475Y-57647285D02*
X186624380Y-57571095D01*
X186624380Y-57571095D02*
X186586285Y-57533000D01*
X186586285Y-57533000D02*
X186510094Y-57494904D01*
%TO.C,J1*%
X180482846Y-62569247D02*
X180482846Y-63140676D01*
X180482846Y-63140676D02*
X180520941Y-63254962D01*
X180520941Y-63254962D02*
X180597132Y-63331152D01*
X180597132Y-63331152D02*
X180711417Y-63369247D01*
X180711417Y-63369247D02*
X180787608Y-63369247D01*
X179682846Y-63369247D02*
X180139989Y-63369247D01*
X179911417Y-63369247D02*
X179911417Y-62569247D01*
X179911417Y-62569247D02*
X179987608Y-62683533D01*
X179987608Y-62683533D02*
X180063798Y-62759723D01*
X180063798Y-62759723D02*
X180139989Y-62797819D01*
%TO.C,U34*%
X147795475Y-55983904D02*
X147795475Y-56631523D01*
X147795475Y-56631523D02*
X147757380Y-56707714D01*
X147757380Y-56707714D02*
X147719285Y-56745809D01*
X147719285Y-56745809D02*
X147643094Y-56783904D01*
X147643094Y-56783904D02*
X147490713Y-56783904D01*
X147490713Y-56783904D02*
X147414523Y-56745809D01*
X147414523Y-56745809D02*
X147376428Y-56707714D01*
X147376428Y-56707714D02*
X147338332Y-56631523D01*
X147338332Y-56631523D02*
X147338332Y-55983904D01*
X147033571Y-55983904D02*
X146538333Y-55983904D01*
X146538333Y-55983904D02*
X146804999Y-56288666D01*
X146804999Y-56288666D02*
X146690714Y-56288666D01*
X146690714Y-56288666D02*
X146614523Y-56326761D01*
X146614523Y-56326761D02*
X146576428Y-56364857D01*
X146576428Y-56364857D02*
X146538333Y-56441047D01*
X146538333Y-56441047D02*
X146538333Y-56631523D01*
X146538333Y-56631523D02*
X146576428Y-56707714D01*
X146576428Y-56707714D02*
X146614523Y-56745809D01*
X146614523Y-56745809D02*
X146690714Y-56783904D01*
X146690714Y-56783904D02*
X146919285Y-56783904D01*
X146919285Y-56783904D02*
X146995476Y-56745809D01*
X146995476Y-56745809D02*
X147033571Y-56707714D01*
X145852618Y-56250571D02*
X145852618Y-56783904D01*
X146043094Y-55945809D02*
X146233571Y-56517238D01*
X146233571Y-56517238D02*
X145738332Y-56517238D01*
%TO.C,U35*%
X195757475Y-59285904D02*
X195757475Y-59933523D01*
X195757475Y-59933523D02*
X195719380Y-60009714D01*
X195719380Y-60009714D02*
X195681285Y-60047809D01*
X195681285Y-60047809D02*
X195605094Y-60085904D01*
X195605094Y-60085904D02*
X195452713Y-60085904D01*
X195452713Y-60085904D02*
X195376523Y-60047809D01*
X195376523Y-60047809D02*
X195338428Y-60009714D01*
X195338428Y-60009714D02*
X195300332Y-59933523D01*
X195300332Y-59933523D02*
X195300332Y-59285904D01*
X194995571Y-59285904D02*
X194500333Y-59285904D01*
X194500333Y-59285904D02*
X194766999Y-59590666D01*
X194766999Y-59590666D02*
X194652714Y-59590666D01*
X194652714Y-59590666D02*
X194576523Y-59628761D01*
X194576523Y-59628761D02*
X194538428Y-59666857D01*
X194538428Y-59666857D02*
X194500333Y-59743047D01*
X194500333Y-59743047D02*
X194500333Y-59933523D01*
X194500333Y-59933523D02*
X194538428Y-60009714D01*
X194538428Y-60009714D02*
X194576523Y-60047809D01*
X194576523Y-60047809D02*
X194652714Y-60085904D01*
X194652714Y-60085904D02*
X194881285Y-60085904D01*
X194881285Y-60085904D02*
X194957476Y-60047809D01*
X194957476Y-60047809D02*
X194995571Y-60009714D01*
X193776523Y-59285904D02*
X194157475Y-59285904D01*
X194157475Y-59285904D02*
X194195571Y-59666857D01*
X194195571Y-59666857D02*
X194157475Y-59628761D01*
X194157475Y-59628761D02*
X194081285Y-59590666D01*
X194081285Y-59590666D02*
X193890809Y-59590666D01*
X193890809Y-59590666D02*
X193814618Y-59628761D01*
X193814618Y-59628761D02*
X193776523Y-59666857D01*
X193776523Y-59666857D02*
X193738428Y-59743047D01*
X193738428Y-59743047D02*
X193738428Y-59933523D01*
X193738428Y-59933523D02*
X193776523Y-60009714D01*
X193776523Y-60009714D02*
X193814618Y-60047809D01*
X193814618Y-60047809D02*
X193890809Y-60085904D01*
X193890809Y-60085904D02*
X194081285Y-60085904D01*
X194081285Y-60085904D02*
X194157475Y-60047809D01*
X194157475Y-60047809D02*
X194195571Y-60009714D01*
%TO.C,U8*%
X186626523Y-59244904D02*
X186626523Y-59892523D01*
X186626523Y-59892523D02*
X186588428Y-59968714D01*
X186588428Y-59968714D02*
X186550333Y-60006809D01*
X186550333Y-60006809D02*
X186474142Y-60044904D01*
X186474142Y-60044904D02*
X186321761Y-60044904D01*
X186321761Y-60044904D02*
X186245571Y-60006809D01*
X186245571Y-60006809D02*
X186207476Y-59968714D01*
X186207476Y-59968714D02*
X186169380Y-59892523D01*
X186169380Y-59892523D02*
X186169380Y-59244904D01*
X185674143Y-59587761D02*
X185750333Y-59549666D01*
X185750333Y-59549666D02*
X185788428Y-59511571D01*
X185788428Y-59511571D02*
X185826524Y-59435380D01*
X185826524Y-59435380D02*
X185826524Y-59397285D01*
X185826524Y-59397285D02*
X185788428Y-59321095D01*
X185788428Y-59321095D02*
X185750333Y-59283000D01*
X185750333Y-59283000D02*
X185674143Y-59244904D01*
X185674143Y-59244904D02*
X185521762Y-59244904D01*
X185521762Y-59244904D02*
X185445571Y-59283000D01*
X185445571Y-59283000D02*
X185407476Y-59321095D01*
X185407476Y-59321095D02*
X185369381Y-59397285D01*
X185369381Y-59397285D02*
X185369381Y-59435380D01*
X185369381Y-59435380D02*
X185407476Y-59511571D01*
X185407476Y-59511571D02*
X185445571Y-59549666D01*
X185445571Y-59549666D02*
X185521762Y-59587761D01*
X185521762Y-59587761D02*
X185674143Y-59587761D01*
X185674143Y-59587761D02*
X185750333Y-59625857D01*
X185750333Y-59625857D02*
X185788428Y-59663952D01*
X185788428Y-59663952D02*
X185826524Y-59740142D01*
X185826524Y-59740142D02*
X185826524Y-59892523D01*
X185826524Y-59892523D02*
X185788428Y-59968714D01*
X185788428Y-59968714D02*
X185750333Y-60006809D01*
X185750333Y-60006809D02*
X185674143Y-60044904D01*
X185674143Y-60044904D02*
X185521762Y-60044904D01*
X185521762Y-60044904D02*
X185445571Y-60006809D01*
X185445571Y-60006809D02*
X185407476Y-59968714D01*
X185407476Y-59968714D02*
X185369381Y-59892523D01*
X185369381Y-59892523D02*
X185369381Y-59740142D01*
X185369381Y-59740142D02*
X185407476Y-59663952D01*
X185407476Y-59663952D02*
X185445571Y-59625857D01*
X185445571Y-59625857D02*
X185521762Y-59587761D01*
D13*
%TO.C,U28*%
X168725000Y-53140000D02*
X170125000Y-53140000D01*
X170125000Y-55460000D02*
X168225000Y-55460000D01*
%TO.C,G\u002A\u002A\u002A*%
G36*
X141565463Y-59594185D02*
G01*
X141577012Y-59646758D01*
X141592526Y-59728524D01*
X141598606Y-59778038D01*
X141591924Y-59795903D01*
X141549238Y-59813128D01*
X141459524Y-59818308D01*
X141320443Y-59818308D01*
X141289814Y-59675490D01*
X141268633Y-59571773D01*
X141261942Y-59501977D01*
X141277385Y-59465976D01*
X141320231Y-59452581D01*
X141395752Y-59450602D01*
X141532320Y-59450602D01*
X141565463Y-59594185D01*
G37*
G36*
X140754011Y-59451601D02*
G01*
X140806332Y-59460894D01*
X140830730Y-59488026D01*
X140843526Y-59542528D01*
X140859228Y-59627499D01*
X140879048Y-59726381D01*
X140898550Y-59818308D01*
X140756615Y-59818308D01*
X140690044Y-59816924D01*
X140633797Y-59805082D01*
X140600483Y-59771332D01*
X140580332Y-59704240D01*
X140563576Y-59592372D01*
X140544770Y-59450602D01*
X140686138Y-59450602D01*
X140754011Y-59451601D01*
G37*
G36*
X138257062Y-59610887D02*
G01*
X138270590Y-59680448D01*
X138284044Y-59755998D01*
X138289252Y-59794740D01*
X138280565Y-59802938D01*
X138230540Y-59813980D01*
X138150852Y-59818308D01*
X138086815Y-59816941D01*
X138031277Y-59805112D01*
X137998247Y-59771363D01*
X137978135Y-59704261D01*
X137961349Y-59592372D01*
X137942543Y-59450602D01*
X138083707Y-59450602D01*
X138224872Y-59450602D01*
X138257062Y-59610887D01*
G37*
G36*
X138577867Y-61218419D02*
G01*
X138761670Y-62137684D01*
X138616826Y-62137684D01*
X138471983Y-62137684D01*
X138294555Y-61239633D01*
X138268697Y-61108460D01*
X138227881Y-60900140D01*
X138191646Y-60713629D01*
X138161282Y-60555661D01*
X138138082Y-60432972D01*
X138123336Y-60352296D01*
X138118334Y-60320368D01*
X138127061Y-60313114D01*
X138177199Y-60303088D01*
X138256803Y-60299154D01*
X138394064Y-60299154D01*
X138577867Y-61218419D01*
G37*
G36*
X139302946Y-60278520D02*
G01*
X139455168Y-60320365D01*
X139584319Y-60397405D01*
X139664884Y-60465196D01*
X139652700Y-60382175D01*
X139647970Y-60339359D01*
X139658020Y-60311255D01*
X139697902Y-60300738D01*
X139780987Y-60299154D01*
X139921459Y-60299154D01*
X140105261Y-61218419D01*
X140289064Y-62137684D01*
X140141005Y-62137684D01*
X139992946Y-62137684D01*
X139878536Y-61550769D01*
X139861263Y-61462294D01*
X139822428Y-61266267D01*
X139790775Y-61114982D01*
X139763844Y-61000606D01*
X139739175Y-60915307D01*
X139714307Y-60851251D01*
X139686782Y-60800606D01*
X139654138Y-60755539D01*
X139613916Y-60708217D01*
X139610692Y-60704569D01*
X139485182Y-60595193D01*
X139352209Y-60537538D01*
X139217437Y-60532949D01*
X139086531Y-60582774D01*
X139057150Y-60600506D01*
X139006475Y-60624247D01*
X138967548Y-60618679D01*
X138914309Y-60583988D01*
X138836639Y-60524332D01*
X138796335Y-60476495D01*
X138796966Y-60435451D01*
X138834092Y-60390492D01*
X138863922Y-60365599D01*
X138991717Y-60300994D01*
X139143261Y-60272015D01*
X139302946Y-60278520D01*
G37*
G36*
X143589168Y-60387545D02*
G01*
X143592413Y-60403536D01*
X143603054Y-60460735D01*
X143602612Y-60501137D01*
X143583511Y-60527853D01*
X143538176Y-60543993D01*
X143459028Y-60552670D01*
X143338494Y-60556993D01*
X143168997Y-60560073D01*
X142731147Y-60567862D01*
X143323893Y-61237276D01*
X143431743Y-61359393D01*
X143582726Y-61532066D01*
X143701427Y-61670775D01*
X143791614Y-61780301D01*
X143857055Y-61865424D01*
X143901519Y-61930926D01*
X143928774Y-61981586D01*
X143942588Y-62022187D01*
X143968539Y-62137684D01*
X143310145Y-62137684D01*
X142651751Y-62137684D01*
X142634696Y-62074043D01*
X142625265Y-62028671D01*
X142617255Y-61947444D01*
X142618459Y-61925713D01*
X142627801Y-61908369D01*
X142653364Y-61896344D01*
X142703217Y-61888402D01*
X142785428Y-61883310D01*
X142908066Y-61879831D01*
X143079200Y-61876731D01*
X143541531Y-61868976D01*
X143062350Y-61331560D01*
X142978427Y-61237419D01*
X142810221Y-61048429D01*
X142674512Y-60895082D01*
X142567663Y-60772826D01*
X142486038Y-60677110D01*
X142426002Y-60603381D01*
X142383917Y-60547087D01*
X142356147Y-60503677D01*
X142339057Y-60468597D01*
X142329009Y-60437297D01*
X142322368Y-60405223D01*
X142303169Y-60299154D01*
X142937330Y-60299154D01*
X143571490Y-60299154D01*
X143589168Y-60387545D01*
G37*
G36*
X137141359Y-60301229D02*
G01*
X137324950Y-60382776D01*
X137489672Y-60509338D01*
X137630659Y-60677442D01*
X137743045Y-60883611D01*
X137821963Y-61124373D01*
X137859192Y-61349873D01*
X137859703Y-61569793D01*
X137820533Y-61761488D01*
X137743149Y-61920678D01*
X137629015Y-62043081D01*
X137479598Y-62124415D01*
X137400315Y-62147169D01*
X137212196Y-62165975D01*
X137020333Y-62143686D01*
X136841438Y-62083209D01*
X136692222Y-61987449D01*
X136588899Y-61897261D01*
X136669860Y-61801160D01*
X136750821Y-61705058D01*
X136872819Y-61793433D01*
X136911933Y-61819797D01*
X137058161Y-61886754D01*
X137201091Y-61908026D01*
X137332199Y-61886141D01*
X137442961Y-61823628D01*
X137524854Y-61723015D01*
X137569355Y-61586831D01*
X137572236Y-61563718D01*
X137572107Y-61412585D01*
X137547537Y-61237353D01*
X137502398Y-61058747D01*
X137440563Y-60897489D01*
X137402261Y-60826464D01*
X137297212Y-60693152D01*
X137172357Y-60597168D01*
X137036404Y-60541317D01*
X136898062Y-60528402D01*
X136766039Y-60561229D01*
X136649043Y-60642601D01*
X136564697Y-60726946D01*
X136465282Y-60651119D01*
X136438288Y-60629641D01*
X136386450Y-60581741D01*
X136365866Y-60551724D01*
X136387017Y-60509967D01*
X136443180Y-60451744D01*
X136519470Y-60389940D01*
X136600985Y-60336595D01*
X136672820Y-60303749D01*
X136737032Y-60287083D01*
X136943764Y-60268173D01*
X137141359Y-60301229D01*
G37*
G36*
X140920474Y-60921809D02*
G01*
X140922069Y-60930085D01*
X140969515Y-61167990D01*
X141011725Y-61357035D01*
X141051673Y-61504105D01*
X141092330Y-61616083D01*
X141136667Y-61699853D01*
X141187656Y-61762300D01*
X141248269Y-61810306D01*
X141321477Y-61850757D01*
X141407441Y-61885214D01*
X141549065Y-61908926D01*
X141671514Y-61888091D01*
X141767725Y-61826138D01*
X141830632Y-61726499D01*
X141853171Y-61592602D01*
X141853068Y-61588006D01*
X141846147Y-61524741D01*
X141829627Y-61417668D01*
X141805264Y-61276984D01*
X141774813Y-61112885D01*
X141740031Y-60935568D01*
X141733168Y-60901427D01*
X141699434Y-60731519D01*
X141670243Y-60581086D01*
X141647290Y-60459116D01*
X141632273Y-60374594D01*
X141626891Y-60336510D01*
X141630528Y-60324705D01*
X141672539Y-60305335D01*
X141765250Y-60299154D01*
X141793498Y-60299351D01*
X141865629Y-60305192D01*
X141901694Y-60324122D01*
X141917629Y-60362796D01*
X141920484Y-60376406D01*
X141933921Y-60443452D01*
X141955538Y-60553168D01*
X141983579Y-60696592D01*
X142016291Y-60864760D01*
X142051919Y-61048709D01*
X142056221Y-61070988D01*
X142094558Y-61272419D01*
X142122472Y-61427380D01*
X142140919Y-61544007D01*
X142150859Y-61630437D01*
X142153250Y-61694806D01*
X142149051Y-61745250D01*
X142139218Y-61789906D01*
X142098569Y-61893625D01*
X142003011Y-62025832D01*
X141875159Y-62118990D01*
X141865001Y-62123751D01*
X141741427Y-62156553D01*
X141594430Y-62162483D01*
X141443279Y-62143774D01*
X141307241Y-62102661D01*
X141205586Y-62041376D01*
X141203208Y-62039230D01*
X141153576Y-62001760D01*
X141134040Y-62010305D01*
X141139122Y-62066972D01*
X141143834Y-62101014D01*
X141133459Y-62126049D01*
X141092479Y-62135941D01*
X141007916Y-62137684D01*
X140954006Y-62137076D01*
X140888687Y-62134028D01*
X140863194Y-62129278D01*
X140862135Y-62122710D01*
X140852405Y-62071514D01*
X140833823Y-61976544D01*
X140808013Y-61845912D01*
X140776598Y-61687729D01*
X140741203Y-61510109D01*
X140703451Y-61321162D01*
X140664967Y-61129001D01*
X140627372Y-60941737D01*
X140592293Y-60767483D01*
X140561351Y-60614350D01*
X140536172Y-60490449D01*
X140518379Y-60403894D01*
X140509595Y-60362796D01*
X140504562Y-60331741D01*
X140516393Y-60309807D01*
X140559881Y-60300860D01*
X140647472Y-60299154D01*
X140800534Y-60299154D01*
X140920474Y-60921809D01*
G37*
G36*
X135649105Y-59453806D02*
G01*
X135703070Y-59468796D01*
X135726020Y-59500101D01*
X135728183Y-59508682D01*
X135740888Y-59566427D01*
X135762594Y-59669508D01*
X135791945Y-59811207D01*
X135827587Y-59984808D01*
X135868165Y-60183592D01*
X135912323Y-60400843D01*
X135958706Y-60629843D01*
X136005960Y-60863874D01*
X136052730Y-61096220D01*
X136097660Y-61320162D01*
X136139395Y-61528983D01*
X136176581Y-61715967D01*
X136207862Y-61874395D01*
X136231883Y-61997551D01*
X136247289Y-62078716D01*
X136252726Y-62111173D01*
X136243339Y-62120664D01*
X136192342Y-62132898D01*
X136111839Y-62137684D01*
X136080335Y-62137443D01*
X136008529Y-62131445D01*
X135972334Y-62112475D01*
X135955836Y-62074043D01*
X135955030Y-62070558D01*
X135943568Y-62016844D01*
X135923301Y-61918610D01*
X135896186Y-61785449D01*
X135864175Y-61626950D01*
X135829224Y-61452707D01*
X135824949Y-61431417D01*
X135788433Y-61256624D01*
X135752778Y-61097321D01*
X135720396Y-60963532D01*
X135693702Y-60865281D01*
X135675108Y-60812590D01*
X135674189Y-60810824D01*
X135591756Y-60699416D01*
X135481080Y-60613077D01*
X135354650Y-60555804D01*
X135224956Y-60531595D01*
X135104489Y-60544448D01*
X135005739Y-60598359D01*
X134975747Y-60628021D01*
X134943442Y-60673190D01*
X134923438Y-60728516D01*
X134915765Y-60801501D01*
X134920453Y-60899649D01*
X134937530Y-61030463D01*
X134967027Y-61201447D01*
X135008972Y-61420105D01*
X135019483Y-61473490D01*
X135054248Y-61649217D01*
X135085631Y-61806586D01*
X135111763Y-61936306D01*
X135130775Y-62029088D01*
X135140800Y-62075641D01*
X135146552Y-62108933D01*
X135135200Y-62129680D01*
X135092436Y-62135694D01*
X135005761Y-62132211D01*
X134854980Y-62123542D01*
X134734944Y-61529555D01*
X134727993Y-61495062D01*
X134681931Y-61258833D01*
X134648613Y-61069445D01*
X134627407Y-60919724D01*
X134617686Y-60802496D01*
X134618820Y-60710586D01*
X134630179Y-60636821D01*
X134651135Y-60574025D01*
X134718839Y-60465879D01*
X134820417Y-60366458D01*
X134932240Y-60300954D01*
X135077557Y-60270944D01*
X135244766Y-60277463D01*
X135410457Y-60318533D01*
X135553915Y-60391148D01*
X135632944Y-60446204D01*
X135617189Y-60379751D01*
X135614231Y-60366669D01*
X135600406Y-60301540D01*
X135579668Y-60201033D01*
X135554295Y-60076499D01*
X135526569Y-59939288D01*
X135498771Y-59800750D01*
X135473180Y-59672235D01*
X135452077Y-59565093D01*
X135437743Y-59490676D01*
X135432459Y-59460331D01*
X135441438Y-59456906D01*
X135491900Y-59452376D01*
X135571978Y-59450602D01*
X135649105Y-59453806D01*
G37*
G36*
X144988200Y-59584956D02*
G01*
X144990429Y-59595543D01*
X145008519Y-59682248D01*
X145034299Y-59806609D01*
X145064661Y-59953609D01*
X145096495Y-60108230D01*
X145176433Y-60497150D01*
X145468379Y-60497150D01*
X145473998Y-60497149D01*
X145603188Y-60496255D01*
X145685546Y-60492536D01*
X145730465Y-60484313D01*
X145747336Y-60469911D01*
X145745551Y-60447651D01*
X145732397Y-60395878D01*
X145711074Y-60300621D01*
X145684875Y-60176837D01*
X145656179Y-60036507D01*
X145627365Y-59891610D01*
X145600813Y-59754125D01*
X145578901Y-59636031D01*
X145564009Y-59549309D01*
X145558517Y-59505938D01*
X145558547Y-59503637D01*
X145560239Y-59494433D01*
X145567022Y-59486360D01*
X145582325Y-59479344D01*
X145609583Y-59473312D01*
X145652226Y-59468188D01*
X145713686Y-59463900D01*
X145797397Y-59460371D01*
X145906789Y-59457530D01*
X146045295Y-59455300D01*
X146216347Y-59453608D01*
X146423377Y-59452381D01*
X146669817Y-59451542D01*
X146959098Y-59451020D01*
X147294654Y-59450738D01*
X147679916Y-59450624D01*
X148118316Y-59450602D01*
X148138658Y-59450602D01*
X148513047Y-59450697D01*
X148870671Y-59450955D01*
X149207551Y-59451363D01*
X149519706Y-59451910D01*
X149803156Y-59452582D01*
X150053919Y-59453368D01*
X150268015Y-59454255D01*
X150441463Y-59455230D01*
X150570283Y-59456282D01*
X150650494Y-59457397D01*
X150678116Y-59458564D01*
X150679557Y-59466976D01*
X150690125Y-59521928D01*
X150709835Y-59622283D01*
X150737359Y-59761398D01*
X150771366Y-59932629D01*
X150810529Y-60129331D01*
X150853517Y-60344861D01*
X150899001Y-60572576D01*
X150945652Y-60805830D01*
X150992142Y-61037980D01*
X151037140Y-61262383D01*
X151079318Y-61472394D01*
X151117347Y-61661370D01*
X151149896Y-61822667D01*
X151175638Y-61949641D01*
X151193242Y-62035647D01*
X151201380Y-62074043D01*
X151216610Y-62137684D01*
X150185671Y-62137684D01*
X149154732Y-62137684D01*
X149121746Y-61975045D01*
X149107042Y-61902694D01*
X149078906Y-61764725D01*
X149052482Y-61635624D01*
X149016204Y-61458842D01*
X149616945Y-61458842D01*
X150217685Y-61458842D01*
X150185123Y-61296203D01*
X150152561Y-61133564D01*
X149553041Y-61125931D01*
X149372030Y-61123514D01*
X149218226Y-61120718D01*
X149107177Y-61116996D01*
X149031617Y-61111512D01*
X148984277Y-61103430D01*
X148957888Y-61091911D01*
X148945184Y-61076120D01*
X148938895Y-61055219D01*
X148928720Y-61010300D01*
X148904427Y-60896611D01*
X148880443Y-60777277D01*
X148859693Y-60667531D01*
X148845100Y-60582605D01*
X148839586Y-60537728D01*
X148841700Y-60529940D01*
X148859616Y-60518062D01*
X148901273Y-60509343D01*
X148973236Y-60503339D01*
X149082068Y-60499603D01*
X149234334Y-60497689D01*
X149436598Y-60497150D01*
X149537568Y-60497038D01*
X149715403Y-60495900D01*
X149845844Y-60493193D01*
X149935145Y-60488501D01*
X149989556Y-60481405D01*
X150015330Y-60471490D01*
X150018718Y-60458338D01*
X150013784Y-60442307D01*
X149999112Y-60375711D01*
X149984195Y-60288628D01*
X149964566Y-60157729D01*
X149019688Y-60157729D01*
X148074811Y-60157729D01*
X148090006Y-60221370D01*
X148098620Y-60261675D01*
X148116380Y-60348095D01*
X148141689Y-60472669D01*
X148172984Y-60627596D01*
X148208706Y-60805074D01*
X148247293Y-60997304D01*
X148287185Y-61196485D01*
X148326822Y-61394816D01*
X148364642Y-61584496D01*
X148399086Y-61757725D01*
X148428592Y-61906702D01*
X148451600Y-62023627D01*
X148466550Y-62100699D01*
X148471880Y-62130117D01*
X148464132Y-62131684D01*
X148411361Y-62133628D01*
X148316901Y-62134239D01*
X148190459Y-62133489D01*
X148041742Y-62131350D01*
X147611605Y-62123542D01*
X147415402Y-61140635D01*
X147219199Y-60157729D01*
X146883846Y-60157729D01*
X146883716Y-60157729D01*
X146753551Y-60159484D01*
X146646961Y-60164257D01*
X146574944Y-60171319D01*
X146548494Y-60179943D01*
X146552369Y-60203697D01*
X146566207Y-60277589D01*
X146588871Y-60394976D01*
X146619092Y-60549379D01*
X146655601Y-60734323D01*
X146697130Y-60943329D01*
X146742410Y-61169920D01*
X146936325Y-62137684D01*
X146506048Y-62137684D01*
X146075771Y-62137684D01*
X145985218Y-61678052D01*
X145964032Y-61571154D01*
X145934442Y-61424032D01*
X145909173Y-61300957D01*
X145890389Y-61212422D01*
X145880252Y-61168920D01*
X145872974Y-61153033D01*
X145848873Y-61135678D01*
X145799853Y-61125469D01*
X145715374Y-61120639D01*
X145584896Y-61119421D01*
X145504442Y-61119815D01*
X145401068Y-61121716D01*
X145330233Y-61124836D01*
X145303951Y-61128775D01*
X145308069Y-61151839D01*
X145321768Y-61222378D01*
X145343343Y-61331376D01*
X145371001Y-61469784D01*
X145402949Y-61628553D01*
X145431152Y-61768660D01*
X145459436Y-61910068D01*
X145481858Y-62023183D01*
X145496626Y-62098953D01*
X145501946Y-62128331D01*
X145493971Y-62130119D01*
X145440813Y-62133114D01*
X145346007Y-62135513D01*
X145219244Y-62137106D01*
X145070217Y-62137684D01*
X144638488Y-62137684D01*
X144375970Y-60815357D01*
X144375544Y-60813210D01*
X144322909Y-60547516D01*
X144273861Y-60298839D01*
X144229468Y-60072673D01*
X144190797Y-59874513D01*
X144158919Y-59709853D01*
X144134900Y-59584187D01*
X144119809Y-59503010D01*
X144114715Y-59471816D01*
X144121438Y-59468106D01*
X144172492Y-59461188D01*
X144265484Y-59455636D01*
X144390571Y-59451943D01*
X144537910Y-59450602D01*
X144959842Y-59450602D01*
X144988200Y-59584956D01*
G37*
%TO.C,U12*%
D14*
X167077000Y-63851000D02*
G75*
G03*
X167077000Y-63851000I-157000J0D01*
G01*
%TO.C,U26*%
X170090000Y-63871000D02*
G75*
G03*
X170090000Y-63871000I-157000J0D01*
G01*
D13*
%TO.C,U21*%
X165475000Y-55990000D02*
X166875000Y-55990000D01*
X166875000Y-58310000D02*
X164975000Y-58310000D01*
%TO.C,R1*%
X174572500Y-51632742D02*
X174572500Y-52107258D01*
X173527500Y-51632742D02*
X173527500Y-52107258D01*
%TO.C,U6*%
D14*
X162523000Y-60791000D02*
G75*
G03*
X162523000Y-60791000I-157000J0D01*
G01*
D13*
%TO.C,U17*%
X162220000Y-55980000D02*
X163620000Y-55980000D01*
X163620000Y-58300000D02*
X161720000Y-58300000D01*
%TO.C,U15*%
X162225000Y-53120000D02*
X163625000Y-53120000D01*
X163625000Y-55440000D02*
X161725000Y-55440000D01*
%TO.C,U30*%
X168725000Y-55990000D02*
X170125000Y-55990000D01*
X170125000Y-58310000D02*
X168225000Y-58310000D01*
%TO.C,U19*%
X165475000Y-53140000D02*
X166875000Y-53140000D01*
X166875000Y-55460000D02*
X164975000Y-55460000D01*
%TO.C,U24*%
D14*
X168552000Y-60836000D02*
G75*
G03*
X168552000Y-60836000I-157000J0D01*
G01*
%TO.C,U33*%
X161123000Y-63866000D02*
G75*
G03*
X161123000Y-63866000I-157000J0D01*
G01*
%TO.C,U10*%
X165514000Y-60816000D02*
G75*
G03*
X165514000Y-60816000I-157000J0D01*
G01*
%TO.C,G\u002A\u002A\u002A*%
G36*
X127770320Y-59883270D02*
G01*
X127774498Y-61108332D01*
X127774612Y-61141642D01*
X127778756Y-62356831D01*
X127624989Y-62447429D01*
X127588142Y-62469108D01*
X127507326Y-62516535D01*
X127412005Y-62572369D01*
X127311149Y-62631355D01*
X127213733Y-62688240D01*
X127138543Y-62731704D01*
X127062949Y-62774509D01*
X127001166Y-62808522D01*
X126958121Y-62831037D01*
X126938743Y-62839344D01*
X126921021Y-62833026D01*
X126880107Y-62812776D01*
X126822963Y-62781854D01*
X126756009Y-62743621D01*
X126683669Y-62701390D01*
X126598628Y-62651894D01*
X126502318Y-62595989D01*
X126391818Y-62531984D01*
X126264204Y-62458188D01*
X126116554Y-62372909D01*
X125945944Y-62274455D01*
X125749453Y-62161136D01*
X125728212Y-62148875D01*
X125601082Y-62074673D01*
X125500970Y-62014546D01*
X125425852Y-61967177D01*
X125373704Y-61931248D01*
X125342502Y-61905443D01*
X125330222Y-61888446D01*
X125328859Y-61875742D01*
X125327052Y-61831657D01*
X125325474Y-61760173D01*
X125324122Y-61664483D01*
X125322993Y-61547775D01*
X125322783Y-61516773D01*
X125851697Y-61516773D01*
X125855671Y-61526331D01*
X125869911Y-61540028D01*
X125897069Y-61559634D01*
X125939798Y-61586914D01*
X126000749Y-61623636D01*
X126082575Y-61671567D01*
X126187928Y-61732474D01*
X126319461Y-61808124D01*
X126323553Y-61810474D01*
X126391757Y-61849193D01*
X126448877Y-61880814D01*
X126489033Y-61902136D01*
X126506347Y-61909954D01*
X126508109Y-61903416D01*
X126510655Y-61868802D01*
X126512833Y-61808467D01*
X126514529Y-61726997D01*
X126515630Y-61628974D01*
X126516022Y-61518984D01*
X126516022Y-61128014D01*
X126478645Y-61147595D01*
X126477006Y-61148459D01*
X126444053Y-61166638D01*
X126389962Y-61197241D01*
X126320288Y-61237053D01*
X126240585Y-61282865D01*
X126156405Y-61331462D01*
X126073302Y-61379634D01*
X125996830Y-61424169D01*
X125932543Y-61461853D01*
X125885995Y-61489475D01*
X125862738Y-61503823D01*
X125855336Y-61509589D01*
X125851697Y-61516773D01*
X125322783Y-61516773D01*
X125322083Y-61413241D01*
X125321390Y-61264072D01*
X125320911Y-61103458D01*
X125320641Y-60934589D01*
X125320622Y-60880757D01*
X125785087Y-60880757D01*
X125785299Y-60984434D01*
X125786161Y-61109085D01*
X125787607Y-61219513D01*
X125789552Y-61311918D01*
X125791913Y-61382500D01*
X125794606Y-61427459D01*
X125797546Y-61442994D01*
X125806442Y-61438849D01*
X125840867Y-61420155D01*
X125897048Y-61388542D01*
X125970890Y-61346340D01*
X126058298Y-61295881D01*
X126155175Y-61239495D01*
X126500345Y-61037816D01*
X126495725Y-60882469D01*
X126491104Y-60727122D01*
X126275146Y-60602422D01*
X126260363Y-60593883D01*
X126168380Y-60540636D01*
X126074536Y-60486149D01*
X125989049Y-60436361D01*
X125922137Y-60397211D01*
X125876862Y-60370614D01*
X126981163Y-60370614D01*
X126981163Y-61037816D01*
X126981163Y-61128014D01*
X126981163Y-61547282D01*
X126981197Y-61699456D01*
X126981339Y-61886283D01*
X126981582Y-62061024D01*
X126981916Y-62221037D01*
X126982332Y-62363680D01*
X126982820Y-62486309D01*
X126983373Y-62586284D01*
X126983979Y-62660961D01*
X126984629Y-62707699D01*
X126985316Y-62723854D01*
X126992403Y-62720286D01*
X127023825Y-62702845D01*
X127075836Y-62673369D01*
X127143540Y-62634640D01*
X127222039Y-62589438D01*
X127257233Y-62569115D01*
X127349255Y-62516011D01*
X127438685Y-62464443D01*
X127516799Y-62419441D01*
X127574871Y-62386035D01*
X127695133Y-62316952D01*
X127695309Y-61141642D01*
X127695268Y-60990654D01*
X127695033Y-60803877D01*
X127694608Y-60629171D01*
X127694011Y-60469180D01*
X127693259Y-60326549D01*
X127692368Y-60203922D01*
X127691356Y-60103942D01*
X127690239Y-60029254D01*
X127689034Y-59982503D01*
X127687760Y-59966331D01*
X127679021Y-59970485D01*
X127644972Y-59989031D01*
X127589091Y-60020375D01*
X127515393Y-60062244D01*
X127427890Y-60112367D01*
X127330598Y-60168473D01*
X126981163Y-60370614D01*
X125876862Y-60370614D01*
X125785087Y-60316701D01*
X125785087Y-60880757D01*
X125320622Y-60880757D01*
X125320579Y-60760657D01*
X125320721Y-60584852D01*
X125321063Y-60410364D01*
X125321603Y-60240385D01*
X125322338Y-60078104D01*
X125323264Y-59926713D01*
X125324378Y-59789402D01*
X125325677Y-59669361D01*
X125327158Y-59569782D01*
X125328817Y-59493855D01*
X125330652Y-59444771D01*
X125330788Y-59443483D01*
X125456246Y-59443483D01*
X125459498Y-59445599D01*
X125485787Y-59461278D01*
X125534863Y-59490021D01*
X125602523Y-59529381D01*
X125684563Y-59576908D01*
X125776781Y-59630155D01*
X125799012Y-59642972D01*
X125955355Y-59733129D01*
X126088496Y-59809952D01*
X126203389Y-59876306D01*
X126304985Y-59935058D01*
X126398238Y-59989074D01*
X126488100Y-60041219D01*
X126579523Y-60094360D01*
X126677460Y-60151362D01*
X126748681Y-60192483D01*
X126823186Y-60234661D01*
X126883699Y-60267984D01*
X126925347Y-60289776D01*
X126943255Y-60297360D01*
X126945049Y-60297014D01*
X126969485Y-60285693D01*
X127006081Y-60263782D01*
X127008913Y-60261969D01*
X127042409Y-60241568D01*
X127098622Y-60208220D01*
X127172271Y-60165026D01*
X127258075Y-60115086D01*
X127350753Y-60061497D01*
X127373903Y-60048129D01*
X127460285Y-59997756D01*
X127534868Y-59953500D01*
X127593386Y-59917945D01*
X127631572Y-59893674D01*
X127645159Y-59883270D01*
X127643391Y-59881220D01*
X127620748Y-59865592D01*
X127576116Y-59838003D01*
X127514696Y-59801613D01*
X127441690Y-59759585D01*
X127398724Y-59735089D01*
X127317778Y-59688735D01*
X127216756Y-59630719D01*
X127100704Y-59563946D01*
X126974669Y-59491321D01*
X126843697Y-59415746D01*
X126712833Y-59340127D01*
X126712551Y-59339964D01*
X126591858Y-59270493D01*
X126479789Y-59206607D01*
X126379690Y-59150166D01*
X126294906Y-59103030D01*
X126228782Y-59067059D01*
X126184664Y-59044112D01*
X126165897Y-59036050D01*
X126160599Y-59037344D01*
X126129639Y-59051224D01*
X126078069Y-59077905D01*
X126011579Y-59114377D01*
X125935862Y-59157635D01*
X125927808Y-59162322D01*
X125837192Y-59215021D01*
X125743474Y-59269473D01*
X125657256Y-59319518D01*
X125589144Y-59359000D01*
X125552700Y-59380371D01*
X125501598Y-59411466D01*
X125467457Y-59433768D01*
X125456246Y-59443483D01*
X125330788Y-59443483D01*
X125332660Y-59425720D01*
X125333644Y-59424616D01*
X125356760Y-59408094D01*
X125408720Y-59375483D01*
X125489376Y-59326869D01*
X125598581Y-59262340D01*
X125736187Y-59181983D01*
X125902049Y-59085884D01*
X126096017Y-58974131D01*
X126166072Y-58933861D01*
X126569464Y-59165923D01*
X126624809Y-59197775D01*
X126768704Y-59280678D01*
X126925838Y-59371311D01*
X127085699Y-59463606D01*
X127237774Y-59551495D01*
X127371548Y-59628909D01*
X127770240Y-59859832D01*
X127770320Y-59883270D01*
G37*
G36*
X130909939Y-59882396D02*
G01*
X130909939Y-61113562D01*
X130909939Y-62319240D01*
X130909939Y-62366299D01*
X130502941Y-62602456D01*
X130485806Y-62612390D01*
X130381030Y-62672700D01*
X130285706Y-62726864D01*
X130203676Y-62772749D01*
X130138781Y-62808226D01*
X130094864Y-62831161D01*
X130075767Y-62839425D01*
X130070813Y-62838578D01*
X130040296Y-62825847D01*
X129992225Y-62800976D01*
X129934564Y-62767993D01*
X129909226Y-62752995D01*
X129849217Y-62717835D01*
X129767706Y-62670342D01*
X129669121Y-62613084D01*
X129557886Y-62548630D01*
X129438428Y-62479550D01*
X129315172Y-62408413D01*
X129242804Y-62366683D01*
X129116919Y-62294066D01*
X128995189Y-62223814D01*
X128882541Y-62158772D01*
X128783901Y-62101786D01*
X128704194Y-62055698D01*
X128648348Y-62023356D01*
X128606101Y-61998211D01*
X128536402Y-61952798D01*
X128490309Y-61916574D01*
X128471081Y-61891955D01*
X128468949Y-61875776D01*
X128466159Y-61828810D01*
X128463828Y-61759396D01*
X128462152Y-61673857D01*
X128461329Y-61578518D01*
X128461464Y-61491163D01*
X128463201Y-61400601D01*
X128466917Y-61337616D01*
X128470485Y-61314295D01*
X128606052Y-61314295D01*
X128613604Y-61319371D01*
X128646595Y-61339406D01*
X128701685Y-61371971D01*
X128774720Y-61414634D01*
X128861546Y-61464960D01*
X128958010Y-61520516D01*
X128991064Y-61539503D01*
X129102206Y-61603456D01*
X129213674Y-61667743D01*
X129318178Y-61728153D01*
X129408430Y-61780473D01*
X129477140Y-61820492D01*
X129655721Y-61924931D01*
X129655721Y-61547427D01*
X130120862Y-61547427D01*
X130120966Y-61699651D01*
X130121392Y-61886404D01*
X130121553Y-61924931D01*
X130122120Y-62061046D01*
X130123122Y-62220937D01*
X130124370Y-62363439D01*
X130125836Y-62485912D01*
X130127492Y-62585718D01*
X130129310Y-62660216D01*
X130131262Y-62706769D01*
X130133321Y-62722736D01*
X130135036Y-62722397D01*
X130159134Y-62711184D01*
X130195616Y-62689469D01*
X130198394Y-62687707D01*
X130231848Y-62667476D01*
X130288057Y-62634335D01*
X130361732Y-62591372D01*
X130447583Y-62541674D01*
X130540319Y-62488328D01*
X130835185Y-62319240D01*
X130835185Y-61142785D01*
X130835133Y-60990811D01*
X130834921Y-60803987D01*
X130834558Y-60629245D01*
X130834059Y-60469227D01*
X130833437Y-60326576D01*
X130832706Y-60203935D01*
X130831881Y-60103948D01*
X130830975Y-60029256D01*
X130830002Y-59982503D01*
X130828976Y-59966331D01*
X130827909Y-59966667D01*
X130806930Y-59977526D01*
X130763899Y-60001409D01*
X130704341Y-60035215D01*
X130633783Y-60075843D01*
X130562708Y-60116969D01*
X130463216Y-60174396D01*
X130365418Y-60230713D01*
X130282830Y-60278129D01*
X130120862Y-60370903D01*
X130120862Y-61547427D01*
X129655721Y-61547427D01*
X129655721Y-61503891D01*
X129655721Y-61082851D01*
X129488717Y-60988293D01*
X129446193Y-60964800D01*
X129373913Y-60928412D01*
X129322124Y-60907728D01*
X129294306Y-60904252D01*
X129281762Y-60909806D01*
X129240311Y-60931210D01*
X129180790Y-60964071D01*
X129107892Y-61005597D01*
X129026308Y-61052990D01*
X128940728Y-61103458D01*
X128855843Y-61154204D01*
X128776346Y-61202434D01*
X128706927Y-61245353D01*
X128652278Y-61280166D01*
X128617089Y-61304078D01*
X128606052Y-61314295D01*
X128470485Y-61314295D01*
X128472826Y-61298997D01*
X128481142Y-61281531D01*
X128485628Y-61278057D01*
X128519283Y-61255750D01*
X128574673Y-61221887D01*
X128647214Y-61179042D01*
X128732319Y-61129786D01*
X128825405Y-61076690D01*
X128921886Y-61022329D01*
X129017177Y-60969272D01*
X129106693Y-60920093D01*
X129185849Y-60877364D01*
X129250060Y-60843656D01*
X129294740Y-60821541D01*
X129315306Y-60813592D01*
X129328542Y-60816340D01*
X129369323Y-60832741D01*
X129425728Y-60860638D01*
X129489733Y-60896230D01*
X129528487Y-60918681D01*
X129583925Y-60949782D01*
X129624452Y-60971212D01*
X129643262Y-60979290D01*
X129644109Y-60979039D01*
X129649983Y-60960288D01*
X129654119Y-60917613D01*
X129655667Y-60859235D01*
X129655613Y-60738797D01*
X129510310Y-60655902D01*
X129366065Y-60573512D01*
X129178879Y-60466260D01*
X129011184Y-60369763D01*
X128864333Y-60284811D01*
X128739679Y-60212193D01*
X128638575Y-60152697D01*
X128562374Y-60107114D01*
X128512429Y-60076232D01*
X128490094Y-60060841D01*
X128488557Y-60059374D01*
X128478819Y-60045163D01*
X128471714Y-60021686D01*
X128466808Y-59984151D01*
X128463667Y-59927767D01*
X128461855Y-59847744D01*
X128460939Y-59739291D01*
X128461044Y-59654341D01*
X128462361Y-59567206D01*
X128464763Y-59496218D01*
X128468050Y-59447069D01*
X128469294Y-59440295D01*
X128590884Y-59440295D01*
X128637397Y-59468608D01*
X128640944Y-59470744D01*
X128672955Y-59489615D01*
X128728716Y-59522188D01*
X128804140Y-59566087D01*
X128895140Y-59618935D01*
X128997629Y-59678355D01*
X129107520Y-59741973D01*
X129212786Y-59802884D01*
X129343985Y-59878838D01*
X129475519Y-59955021D01*
X129600113Y-60027218D01*
X129710492Y-60091216D01*
X129799382Y-60142799D01*
X129800364Y-60143369D01*
X129884969Y-60192311D01*
X129959205Y-60234902D01*
X130018490Y-60268542D01*
X130058244Y-60290633D01*
X130073885Y-60298574D01*
X130077279Y-60297302D01*
X130102983Y-60284043D01*
X130147661Y-60259442D01*
X130204325Y-60227318D01*
X130223156Y-60216511D01*
X130366907Y-60133898D01*
X130484460Y-60066052D01*
X130578228Y-60011518D01*
X130650624Y-59968842D01*
X130704061Y-59936568D01*
X130740954Y-59913241D01*
X130763716Y-59897407D01*
X130774761Y-59887610D01*
X130776502Y-59882396D01*
X130768299Y-59875541D01*
X130736032Y-59854314D01*
X130685638Y-59823599D01*
X130623651Y-59787454D01*
X130620133Y-59785442D01*
X130547073Y-59743540D01*
X130457028Y-59691723D01*
X130361095Y-59636385D01*
X130270371Y-59583919D01*
X130130546Y-59502970D01*
X129946443Y-59396563D01*
X129788681Y-59305627D01*
X129655871Y-59229375D01*
X129546625Y-59167018D01*
X129459552Y-59117766D01*
X129393263Y-59080833D01*
X129346369Y-59055428D01*
X129317481Y-59040763D01*
X129305209Y-59036050D01*
X129295070Y-59040069D01*
X129259057Y-59058507D01*
X129201408Y-59089824D01*
X129126257Y-59131733D01*
X129037737Y-59181945D01*
X128939984Y-59238172D01*
X128590884Y-59440295D01*
X128469294Y-59440295D01*
X128472021Y-59425451D01*
X128481060Y-59416724D01*
X128513959Y-59393401D01*
X128559318Y-59366148D01*
X128568742Y-59360851D01*
X128613776Y-59335179D01*
X128680235Y-59296990D01*
X128762675Y-59249424D01*
X128855651Y-59195619D01*
X128953719Y-59138716D01*
X128995499Y-59114601D01*
X129087063Y-59062900D01*
X129168506Y-59018459D01*
X129235218Y-58983707D01*
X129282590Y-58961074D01*
X129306014Y-58952989D01*
X129323836Y-58958897D01*
X129367717Y-58979587D01*
X129432395Y-59013001D01*
X129513648Y-59056895D01*
X129607255Y-59109026D01*
X129708997Y-59167152D01*
X129778141Y-59207131D01*
X129912814Y-59284977D01*
X130061247Y-59370751D01*
X130213992Y-59458997D01*
X130361604Y-59544256D01*
X130494635Y-59621070D01*
X130909939Y-59860826D01*
X130909939Y-59882396D01*
G37*
G36*
X124630618Y-59883270D02*
G01*
X124634799Y-61109925D01*
X124634902Y-61140257D01*
X124639058Y-62359174D01*
X124568351Y-62400956D01*
X124566742Y-62401906D01*
X124523611Y-62427162D01*
X124460380Y-62463939D01*
X124385295Y-62507451D01*
X124306604Y-62552909D01*
X124231614Y-62596296D01*
X124135240Y-62652357D01*
X124042527Y-62706570D01*
X123966055Y-62751595D01*
X123919317Y-62778838D01*
X123862795Y-62810498D01*
X123821356Y-62832141D01*
X123801671Y-62840172D01*
X123790618Y-62836535D01*
X123754708Y-62819029D01*
X123701506Y-62790462D01*
X123637616Y-62754662D01*
X123569644Y-62715456D01*
X123504195Y-62676670D01*
X123447873Y-62642131D01*
X123407286Y-62615667D01*
X123389036Y-62601103D01*
X123384620Y-62588596D01*
X123378917Y-62548577D01*
X123376577Y-62495533D01*
X123375962Y-62461821D01*
X123373450Y-62423312D01*
X123369712Y-62408319D01*
X123362719Y-62410985D01*
X123333493Y-62425934D01*
X123290805Y-62449650D01*
X123265460Y-62463507D01*
X123223951Y-62483312D01*
X123199128Y-62491180D01*
X123190334Y-62488669D01*
X123156143Y-62472510D01*
X123104143Y-62444710D01*
X123040992Y-62409170D01*
X122973347Y-62369793D01*
X122907867Y-62330482D01*
X122851210Y-62295139D01*
X122810034Y-62267667D01*
X122790998Y-62251968D01*
X122786449Y-62238876D01*
X122780838Y-62198514D01*
X122778539Y-62145099D01*
X122778285Y-62056307D01*
X122704725Y-62099416D01*
X122678154Y-62114044D01*
X122633513Y-62134497D01*
X122604177Y-62142525D01*
X122602773Y-62142436D01*
X122574859Y-62132667D01*
X122526565Y-62109534D01*
X122464893Y-62077022D01*
X122396847Y-62039113D01*
X122329433Y-61999793D01*
X122269653Y-61963045D01*
X122224511Y-61932853D01*
X122201012Y-61913200D01*
X122200729Y-61912815D01*
X122196655Y-61899852D01*
X122193122Y-61872422D01*
X122190096Y-61828647D01*
X122187549Y-61766654D01*
X122185448Y-61684566D01*
X122183763Y-61580508D01*
X122182464Y-61452604D01*
X122181519Y-61298979D01*
X122181106Y-61178777D01*
X122645387Y-61178777D01*
X122645399Y-61242988D01*
X122645533Y-61405249D01*
X122645807Y-61555840D01*
X122646204Y-61691681D01*
X122646712Y-61809694D01*
X122647314Y-61906798D01*
X122647996Y-61979916D01*
X122648743Y-62025968D01*
X122649541Y-62041874D01*
X122653439Y-62039827D01*
X122677839Y-62024735D01*
X122716152Y-61999999D01*
X122778610Y-61959102D01*
X122776184Y-61519073D01*
X123243425Y-61519073D01*
X123243453Y-61576538D01*
X123243843Y-61738368D01*
X123244655Y-61888614D01*
X123245274Y-61959102D01*
X123245845Y-62024186D01*
X123247367Y-62141991D01*
X123249178Y-62238939D01*
X123251231Y-62311937D01*
X123253481Y-62357894D01*
X123255885Y-62373719D01*
X123258659Y-62373041D01*
X123284296Y-62360958D01*
X123322333Y-62338965D01*
X123376323Y-62305588D01*
X123376199Y-61546558D01*
X123841463Y-61546558D01*
X123841569Y-61699590D01*
X123841996Y-61886356D01*
X123842724Y-62060993D01*
X123843726Y-62220866D01*
X123844468Y-62305588D01*
X123844974Y-62363337D01*
X123846440Y-62485768D01*
X123848096Y-62585523D01*
X123849913Y-62659966D01*
X123851865Y-62706458D01*
X123853922Y-62722362D01*
X123862752Y-62718287D01*
X123897083Y-62699654D01*
X123953160Y-62668062D01*
X124026889Y-62625843D01*
X124114174Y-62575332D01*
X124210922Y-62518863D01*
X124555463Y-62316952D01*
X124555625Y-61140257D01*
X124555531Y-60990494D01*
X124555074Y-60803011D01*
X124554270Y-60627963D01*
X124553148Y-60467949D01*
X124551740Y-60325568D01*
X124550078Y-60203418D01*
X124548192Y-60104097D01*
X124546114Y-60030205D01*
X124543876Y-59984340D01*
X124541509Y-59969100D01*
X124533003Y-59973500D01*
X124498771Y-59992492D01*
X124442621Y-60024194D01*
X124368721Y-60066241D01*
X124281241Y-60116266D01*
X124184347Y-60171902D01*
X123841463Y-60369166D01*
X123841463Y-61546558D01*
X123376199Y-61546558D01*
X123376195Y-61522192D01*
X123376067Y-60738797D01*
X123309746Y-60700923D01*
X123243425Y-60663050D01*
X123243425Y-61519073D01*
X122776184Y-61519073D01*
X122774294Y-61176325D01*
X122769979Y-60393548D01*
X122707683Y-60354126D01*
X122645387Y-60314703D01*
X122645387Y-61178777D01*
X122181106Y-61178777D01*
X122180897Y-61117757D01*
X122180568Y-60907063D01*
X122180501Y-60665020D01*
X122180687Y-60476237D01*
X122181180Y-60286471D01*
X122181953Y-60108773D01*
X122182979Y-59945785D01*
X122184231Y-59800153D01*
X122185684Y-59674522D01*
X122187309Y-59571536D01*
X122189082Y-59493840D01*
X122190974Y-59444079D01*
X122191034Y-59443498D01*
X122316620Y-59443498D01*
X122329260Y-59451312D01*
X122366499Y-59473304D01*
X122423640Y-59506675D01*
X122496011Y-59548697D01*
X122578939Y-59596641D01*
X122586412Y-59600953D01*
X122752414Y-59696740D01*
X122893808Y-59778337D01*
X123014599Y-59848058D01*
X123118793Y-59908215D01*
X123210395Y-59961124D01*
X123293412Y-60009096D01*
X123371848Y-60054447D01*
X123449709Y-60099490D01*
X123531002Y-60146537D01*
X123611484Y-60193030D01*
X123684956Y-60235283D01*
X123743422Y-60268701D01*
X123782305Y-60290670D01*
X123797030Y-60298574D01*
X123803926Y-60295033D01*
X123835072Y-60277627D01*
X123886841Y-60248179D01*
X123954356Y-60209469D01*
X124032737Y-60164275D01*
X124067725Y-60144054D01*
X124159709Y-60090920D01*
X124249126Y-60039303D01*
X124327245Y-59994242D01*
X124385335Y-59960776D01*
X124405460Y-59949080D01*
X124456613Y-59918144D01*
X124492261Y-59894760D01*
X124505664Y-59883270D01*
X124499424Y-59877327D01*
X124469848Y-59857559D01*
X124421482Y-59828139D01*
X124360484Y-59792899D01*
X124353188Y-59788769D01*
X124300901Y-59758986D01*
X124224775Y-59715423D01*
X124128917Y-59660438D01*
X124017432Y-59596389D01*
X123894424Y-59525634D01*
X123764000Y-59450532D01*
X123630264Y-59373441D01*
X123579833Y-59344392D01*
X123455537Y-59273122D01*
X123341162Y-59208000D01*
X123239843Y-59150780D01*
X123154716Y-59103219D01*
X123088916Y-59067074D01*
X123045577Y-59044099D01*
X123027836Y-59036050D01*
X123027331Y-59036107D01*
X123007142Y-59045131D01*
X122964148Y-59067685D01*
X122903062Y-59101069D01*
X122828597Y-59142585D01*
X122745463Y-59189532D01*
X122658372Y-59239211D01*
X122572038Y-59288924D01*
X122491171Y-59335969D01*
X122420484Y-59377649D01*
X122364688Y-59411263D01*
X122328496Y-59434112D01*
X122316620Y-59443498D01*
X122191034Y-59443498D01*
X122192960Y-59424897D01*
X122201212Y-59417586D01*
X122235266Y-59394523D01*
X122290883Y-59359913D01*
X122363505Y-59316347D01*
X122448575Y-59266417D01*
X122541534Y-59212714D01*
X122637826Y-59157829D01*
X122732893Y-59104353D01*
X122822176Y-59054878D01*
X122901119Y-59011995D01*
X122965163Y-58978296D01*
X123009751Y-58956370D01*
X123030326Y-58948810D01*
X123037441Y-58950377D01*
X123058824Y-58959035D01*
X123093779Y-58976274D01*
X123144450Y-59003290D01*
X123212979Y-59041276D01*
X123301512Y-59091429D01*
X123412192Y-59154942D01*
X123547162Y-59233012D01*
X123708566Y-59326831D01*
X123765082Y-59359668D01*
X123859770Y-59414501D01*
X123967042Y-59476468D01*
X124077567Y-59540179D01*
X124182013Y-59600246D01*
X124273213Y-59652689D01*
X124363167Y-59704549D01*
X124443025Y-59750719D01*
X124506544Y-59787589D01*
X124547480Y-59811549D01*
X124630541Y-59860675D01*
X124630618Y-59883270D01*
G37*
G36*
X121490842Y-59433835D02*
G01*
X121490842Y-60199160D01*
X121490842Y-60515933D01*
X121490842Y-60589336D01*
X121490842Y-60985333D01*
X121379917Y-61053105D01*
X121368022Y-61060396D01*
X121315940Y-61092919D01*
X121276926Y-61118233D01*
X121258676Y-61131370D01*
X121258266Y-61133143D01*
X121273051Y-61148461D01*
X121309492Y-61173508D01*
X121361295Y-61203839D01*
X121371787Y-61209649D01*
X121425811Y-61241294D01*
X121466751Y-61268075D01*
X121486435Y-61284713D01*
X121489599Y-61301449D01*
X121490055Y-61303864D01*
X121493529Y-61351434D01*
X121496306Y-61421362D01*
X121498167Y-61507987D01*
X121498894Y-61605651D01*
X121499148Y-61907692D01*
X121453465Y-61939346D01*
X121449790Y-61941775D01*
X121418601Y-61960867D01*
X121362858Y-61993970D01*
X121285956Y-62039102D01*
X121191290Y-62094282D01*
X121082256Y-62157531D01*
X120962248Y-62226868D01*
X120834662Y-62300312D01*
X120830186Y-62302884D01*
X120824706Y-62306033D01*
X120690493Y-62383270D01*
X120558504Y-62459418D01*
X120433173Y-62531905D01*
X120318935Y-62598160D01*
X120220223Y-62655613D01*
X120141472Y-62701691D01*
X120087114Y-62733824D01*
X120045501Y-62758491D01*
X119973491Y-62799409D01*
X119922262Y-62824750D01*
X119887029Y-62836329D01*
X119863005Y-62835960D01*
X119845407Y-62825458D01*
X119828739Y-62814430D01*
X119786812Y-62788972D01*
X119723767Y-62751595D01*
X119643566Y-62704630D01*
X119550171Y-62650410D01*
X119447546Y-62591268D01*
X119348241Y-62534177D01*
X119255918Y-62480971D01*
X119177169Y-62435454D01*
X119115807Y-62399834D01*
X119075644Y-62376319D01*
X119060493Y-62367118D01*
X119060254Y-62364990D01*
X119059560Y-62337964D01*
X119058883Y-62283031D01*
X119058233Y-62204158D01*
X119057620Y-62105312D01*
X119057053Y-61990460D01*
X119056542Y-61863570D01*
X119056097Y-61728607D01*
X119055727Y-61589539D01*
X119055443Y-61450333D01*
X119055258Y-61317478D01*
X119126921Y-61317478D01*
X119126954Y-61456590D01*
X119127583Y-61606513D01*
X119131915Y-62316413D01*
X119480770Y-62519443D01*
X119550700Y-62560008D01*
X119641864Y-62612459D01*
X119720681Y-62657304D01*
X119783073Y-62692244D01*
X119824960Y-62714980D01*
X119842263Y-62723212D01*
X119843843Y-62717492D01*
X119846195Y-62683368D01*
X119848150Y-62621448D01*
X119849667Y-62535130D01*
X119850708Y-62427810D01*
X119851231Y-62302884D01*
X119851198Y-62163749D01*
X119850569Y-62013802D01*
X119848888Y-61738152D01*
X120304951Y-61738152D01*
X120306289Y-61802635D01*
X120311378Y-61919580D01*
X120834662Y-61617740D01*
X120835260Y-61617395D01*
X120954569Y-61548085D01*
X121063938Y-61483613D01*
X121160210Y-61425910D01*
X121240230Y-61376910D01*
X121300842Y-61338545D01*
X121338890Y-61312747D01*
X121351218Y-61301449D01*
X121337537Y-61288345D01*
X121302320Y-61263131D01*
X121254300Y-61232668D01*
X121164110Y-61178338D01*
X120762662Y-61410102D01*
X120753636Y-61415314D01*
X120648115Y-61476419D01*
X120551274Y-61532803D01*
X120467137Y-61582097D01*
X120399730Y-61621935D01*
X120353079Y-61649951D01*
X120331207Y-61663778D01*
X120319542Y-61674678D01*
X120308867Y-61698294D01*
X120304951Y-61738152D01*
X119848888Y-61738152D01*
X119846238Y-61303654D01*
X119497382Y-61100811D01*
X119427504Y-61060315D01*
X119336325Y-61007908D01*
X119257494Y-60963105D01*
X119195091Y-60928203D01*
X119153196Y-60905499D01*
X119135889Y-60897290D01*
X119134313Y-60902991D01*
X119131960Y-60937087D01*
X119130004Y-60998980D01*
X119128486Y-61085275D01*
X119127445Y-61192574D01*
X119126921Y-61317478D01*
X119055258Y-61317478D01*
X119055254Y-61314956D01*
X119055169Y-61187375D01*
X119055199Y-61071556D01*
X119055354Y-60971467D01*
X119055642Y-60891074D01*
X119056074Y-60834344D01*
X119056323Y-60821968D01*
X119177080Y-60821968D01*
X119185600Y-60827094D01*
X119219383Y-60846721D01*
X119275122Y-60878848D01*
X119348839Y-60921190D01*
X119436558Y-60971460D01*
X119534302Y-61027370D01*
X119607228Y-61068989D01*
X119697907Y-61120561D01*
X119775639Y-61164564D01*
X119836455Y-61198759D01*
X119876387Y-61220908D01*
X119891463Y-61228772D01*
X119906317Y-61220956D01*
X119945361Y-61198992D01*
X120004013Y-61165489D01*
X120077705Y-61123056D01*
X120161869Y-61074303D01*
X120224326Y-61038028D01*
X120343594Y-60968767D01*
X120472595Y-60893865D01*
X120599491Y-60820193D01*
X120712443Y-60754627D01*
X120997224Y-60589336D01*
X120891300Y-60527886D01*
X120785376Y-60466435D01*
X120423786Y-60675097D01*
X120353800Y-60715470D01*
X120251493Y-60774437D01*
X120157193Y-60828731D01*
X120092684Y-60865826D01*
X120076090Y-60875368D01*
X120013377Y-60911359D01*
X119974242Y-60933720D01*
X119886289Y-60983680D01*
X119638273Y-60840473D01*
X119571473Y-60802062D01*
X119498056Y-60760262D01*
X119438913Y-60727064D01*
X119398860Y-60705166D01*
X119382715Y-60697266D01*
X119376655Y-60699347D01*
X119349099Y-60713702D01*
X119307935Y-60737358D01*
X119261656Y-60765163D01*
X119218758Y-60791968D01*
X119187734Y-60812620D01*
X119177080Y-60821968D01*
X119056323Y-60821968D01*
X119056659Y-60805245D01*
X119057824Y-60802400D01*
X119078392Y-60783496D01*
X119119267Y-60755098D01*
X119173445Y-60722185D01*
X119189685Y-60712794D01*
X119240543Y-60682092D01*
X119276139Y-60658579D01*
X119289585Y-60646728D01*
X119289158Y-60645657D01*
X119271603Y-60631191D01*
X119233450Y-60605916D01*
X119181766Y-60574565D01*
X119173967Y-60569975D01*
X119121533Y-60537584D01*
X119081960Y-60510581D01*
X119063297Y-60494411D01*
X119062129Y-60490341D01*
X119059215Y-60459317D01*
X119056755Y-60404187D01*
X119054792Y-60331320D01*
X119053373Y-60247086D01*
X119052543Y-60157852D01*
X119052469Y-60124657D01*
X119126427Y-60124657D01*
X119127317Y-60210408D01*
X119131915Y-60454484D01*
X119406015Y-60610600D01*
X119488052Y-60657319D01*
X119578336Y-60708725D01*
X119659327Y-60754828D01*
X119724500Y-60791915D01*
X119767330Y-60816271D01*
X119854544Y-60865826D01*
X119854271Y-60619578D01*
X119854052Y-60422113D01*
X120871174Y-60422113D01*
X120879839Y-60427304D01*
X120910662Y-60445202D01*
X120955100Y-60470746D01*
X121034008Y-60515933D01*
X121034008Y-60423866D01*
X121033443Y-60385646D01*
X121031186Y-60346835D01*
X121027794Y-60331799D01*
X121018907Y-60334952D01*
X120989758Y-60349713D01*
X120950578Y-60371479D01*
X120911200Y-60394581D01*
X120881455Y-60413348D01*
X120871174Y-60422113D01*
X119854052Y-60422113D01*
X119853998Y-60373329D01*
X119499672Y-60169830D01*
X119425495Y-60127371D01*
X119333954Y-60075401D01*
X119254993Y-60031060D01*
X119192655Y-59996600D01*
X119150987Y-59974274D01*
X119134033Y-59966331D01*
X119132231Y-59969672D01*
X119129044Y-59998491D01*
X119127056Y-60052086D01*
X119126427Y-60124657D01*
X119052469Y-60124657D01*
X119052346Y-60069989D01*
X119052828Y-59989863D01*
X119054033Y-59923845D01*
X119055692Y-59885591D01*
X119190057Y-59885591D01*
X119202633Y-59898569D01*
X119237023Y-59922366D01*
X119285577Y-59951500D01*
X119313576Y-59967453D01*
X119375451Y-60003011D01*
X119454060Y-60048415D01*
X119542177Y-60099492D01*
X119632579Y-60152065D01*
X119703042Y-60192942D01*
X119776245Y-60234990D01*
X119834968Y-60268253D01*
X119874484Y-60290056D01*
X119890068Y-60297726D01*
X119901524Y-60291687D01*
X119938310Y-60270981D01*
X119996597Y-60237691D01*
X120072494Y-60194049D01*
X120162106Y-60142290D01*
X120261542Y-60084647D01*
X120284835Y-60071124D01*
X120417824Y-59994025D01*
X120566473Y-59907996D01*
X120719783Y-59819393D01*
X120866753Y-59734575D01*
X120996384Y-59659901D01*
X121084902Y-59608433D01*
X121174959Y-59554826D01*
X121250953Y-59508234D01*
X121309168Y-59470986D01*
X121345884Y-59445410D01*
X121357384Y-59433835D01*
X121344920Y-59423054D01*
X121309982Y-59400152D01*
X121262110Y-59372341D01*
X121235794Y-59357673D01*
X121176614Y-59324285D01*
X121100286Y-59280926D01*
X121013816Y-59231578D01*
X120924208Y-59180223D01*
X120855487Y-59141099D01*
X120780323Y-59099185D01*
X120718878Y-59065908D01*
X120676148Y-59043964D01*
X120657129Y-59036050D01*
X120655267Y-59036590D01*
X120630956Y-59048623D01*
X120581926Y-59075112D01*
X120511363Y-59114266D01*
X120422455Y-59164294D01*
X120318388Y-59223405D01*
X120202348Y-59289810D01*
X120077524Y-59361717D01*
X120072641Y-59364539D01*
X119940244Y-59441040D01*
X119810376Y-59516059D01*
X119687412Y-59587071D01*
X119575722Y-59651551D01*
X119479680Y-59706975D01*
X119403657Y-59750821D01*
X119352026Y-59780562D01*
X119294421Y-59814479D01*
X119240314Y-59848117D01*
X119203589Y-59873077D01*
X119190057Y-59885591D01*
X119055692Y-59885591D01*
X119056008Y-59878303D01*
X119058797Y-59859605D01*
X119063267Y-59856633D01*
X119091745Y-59839486D01*
X119142777Y-59809449D01*
X119212184Y-59768964D01*
X119295786Y-59720474D01*
X119389403Y-59666421D01*
X119400630Y-59659952D01*
X119504152Y-59600254D01*
X119628241Y-59528631D01*
X119765630Y-59449280D01*
X119909052Y-59366399D01*
X120051242Y-59284186D01*
X120184933Y-59206838D01*
X120656525Y-58933892D01*
X121073684Y-59173440D01*
X121490842Y-59412987D01*
X121490842Y-59433835D01*
G37*
G36*
X115205923Y-59436086D02*
G01*
X115207418Y-59448355D01*
X115210334Y-59492755D01*
X115212792Y-59555478D01*
X115214822Y-59638387D01*
X115216456Y-59743344D01*
X115217724Y-59872212D01*
X115218656Y-60026853D01*
X115219284Y-60209130D01*
X115219639Y-60420905D01*
X115219750Y-60664042D01*
X115219743Y-60729892D01*
X115219572Y-60964763D01*
X115219150Y-61168754D01*
X115218446Y-61343726D01*
X115217762Y-61443077D01*
X115217429Y-61491543D01*
X115217132Y-61518349D01*
X115216070Y-61614068D01*
X115214337Y-61713162D01*
X115212198Y-61790688D01*
X115209625Y-61848510D01*
X115206585Y-61888489D01*
X115203049Y-61912487D01*
X115198985Y-61922369D01*
X115190072Y-61928295D01*
X115154809Y-61949808D01*
X115097638Y-61983769D01*
X115022859Y-62027646D01*
X114934770Y-62078912D01*
X114837670Y-62135033D01*
X114746526Y-62187558D01*
X114619447Y-62260830D01*
X114478752Y-62341985D01*
X114332634Y-62426298D01*
X114241467Y-62478921D01*
X114189286Y-62509041D01*
X114056898Y-62585488D01*
X114011438Y-62611627D01*
X113904101Y-62672362D01*
X113806839Y-62726044D01*
X113723364Y-62770712D01*
X113657385Y-62804403D01*
X113612612Y-62825154D01*
X113592754Y-62831002D01*
X113590303Y-62829976D01*
X113562646Y-62815645D01*
X113513764Y-62788491D01*
X113449774Y-62751958D01*
X113376796Y-62709488D01*
X113302453Y-62665957D01*
X113194774Y-62603181D01*
X113085062Y-62539464D01*
X112988231Y-62483482D01*
X112900909Y-62431444D01*
X112835202Y-62387732D01*
X112794308Y-62353744D01*
X112775427Y-62327425D01*
X112770903Y-62299886D01*
X112767235Y-62245709D01*
X112764630Y-62172610D01*
X112763118Y-62087854D01*
X112762997Y-62060150D01*
X112844210Y-62060150D01*
X112844239Y-62105829D01*
X112844779Y-62188667D01*
X112846591Y-62246111D01*
X112850426Y-62283606D01*
X112857036Y-62306598D01*
X112867172Y-62320531D01*
X112881588Y-62330850D01*
X112888757Y-62335159D01*
X112924336Y-62356061D01*
X112982004Y-62389634D01*
X113057020Y-62433130D01*
X113144646Y-62483796D01*
X113240141Y-62538885D01*
X113285698Y-62565095D01*
X113374572Y-62615981D01*
X113451451Y-62659673D01*
X113512148Y-62693807D01*
X113552471Y-62716021D01*
X113568231Y-62723951D01*
X113569381Y-62720494D01*
X113571590Y-62691442D01*
X113573296Y-62637636D01*
X113574350Y-62564865D01*
X113574600Y-62478921D01*
X113574054Y-62233892D01*
X113355913Y-62109300D01*
X113341509Y-62101069D01*
X113247692Y-62047264D01*
X113150926Y-61991493D01*
X113061822Y-61939884D01*
X112990991Y-61898564D01*
X112844210Y-61812420D01*
X112844210Y-62060150D01*
X112762997Y-62060150D01*
X112762730Y-61998709D01*
X112763495Y-61912443D01*
X112765444Y-61836323D01*
X112768606Y-61777615D01*
X112772607Y-61746720D01*
X112891612Y-61746720D01*
X113237532Y-61946424D01*
X113303631Y-61984513D01*
X113395342Y-62037106D01*
X113475017Y-62082497D01*
X113538480Y-62118320D01*
X113581555Y-62142209D01*
X113600064Y-62151797D01*
X113601725Y-62152050D01*
X113626791Y-62144635D01*
X113670549Y-62124249D01*
X113724655Y-62094716D01*
X113770041Y-62068348D01*
X113920696Y-61980914D01*
X114069778Y-61894524D01*
X114211861Y-61812315D01*
X114341519Y-61737426D01*
X114453326Y-61672994D01*
X114541855Y-61622156D01*
X114547748Y-61618780D01*
X114614378Y-61580281D01*
X114668266Y-61548573D01*
X114704029Y-61526862D01*
X114716283Y-61518349D01*
X114711477Y-61515319D01*
X114679210Y-61496041D01*
X114625860Y-61464886D01*
X114556411Y-61424705D01*
X114475849Y-61378347D01*
X114389161Y-61328659D01*
X114301331Y-61278492D01*
X114217344Y-61230695D01*
X114142188Y-61188116D01*
X114080846Y-61153605D01*
X114038304Y-61130011D01*
X114019548Y-61120182D01*
X114012148Y-61120191D01*
X113975856Y-61133049D01*
X113912104Y-61163669D01*
X113820775Y-61212112D01*
X113701754Y-61278438D01*
X113554925Y-61362708D01*
X113529713Y-61377332D01*
X113414462Y-61444170D01*
X113303920Y-61508252D01*
X113202895Y-61566796D01*
X113116189Y-61617016D01*
X113048610Y-61656129D01*
X113004962Y-61681351D01*
X112891612Y-61746720D01*
X112772607Y-61746720D01*
X112773013Y-61743587D01*
X112777683Y-61736833D01*
X112806326Y-61712856D01*
X112856267Y-61678153D01*
X112922260Y-61636268D01*
X112999062Y-61590748D01*
X113145393Y-61506758D01*
X113320198Y-61406286D01*
X113477108Y-61315937D01*
X113614557Y-61236616D01*
X113730980Y-61169231D01*
X113824810Y-61114689D01*
X113894483Y-61073895D01*
X113938432Y-61047757D01*
X113955091Y-61037181D01*
X113955778Y-61036055D01*
X113959852Y-61012123D01*
X113963246Y-60965230D01*
X113965285Y-60904192D01*
X113966140Y-60866337D01*
X113965892Y-60823287D01*
X113959632Y-60799174D01*
X113942721Y-60793377D01*
X113910521Y-60805279D01*
X113858394Y-60834261D01*
X113781702Y-60879704D01*
X113743971Y-60901381D01*
X113684290Y-60933117D01*
X113637273Y-60954942D01*
X113610708Y-60963061D01*
X113606050Y-60962322D01*
X113573520Y-60949344D01*
X113518892Y-60922280D01*
X113446826Y-60883859D01*
X113361979Y-60836811D01*
X113269010Y-60783868D01*
X113172579Y-60727758D01*
X113077343Y-60671213D01*
X112987963Y-60616962D01*
X112909095Y-60567736D01*
X112845400Y-60526264D01*
X112801535Y-60495277D01*
X112782160Y-60477504D01*
X112773259Y-60444848D01*
X112844210Y-60444848D01*
X113197219Y-60648439D01*
X113269925Y-60690360D01*
X113361586Y-60743175D01*
X113440767Y-60788759D01*
X113503393Y-60824769D01*
X113545391Y-60848860D01*
X113562686Y-60858690D01*
X113564884Y-60855995D01*
X113568940Y-60828480D01*
X113572195Y-60776041D01*
X113573452Y-60734349D01*
X114039090Y-60734349D01*
X114043841Y-60885074D01*
X114048592Y-61035798D01*
X114401601Y-61239437D01*
X114754609Y-61443077D01*
X114754609Y-60885660D01*
X114754603Y-60840901D01*
X114754435Y-60698508D01*
X114753914Y-60585251D01*
X114752874Y-60497924D01*
X114751152Y-60433324D01*
X114748582Y-60388243D01*
X114745000Y-60359477D01*
X114740241Y-60343821D01*
X114734141Y-60338070D01*
X114726534Y-60339017D01*
X114723926Y-60340125D01*
X114694913Y-60355077D01*
X114644802Y-60382788D01*
X114579877Y-60419736D01*
X114506423Y-60462398D01*
X114427810Y-60508425D01*
X114334912Y-60562677D01*
X114247335Y-60613695D01*
X114238803Y-60618648D01*
X114176739Y-60654677D01*
X114039090Y-60734349D01*
X113573452Y-60734349D01*
X113574360Y-60704242D01*
X113575146Y-60618648D01*
X113575146Y-60371947D01*
X113388259Y-60265261D01*
X113312653Y-60221916D01*
X113230046Y-60174200D01*
X113156406Y-60131319D01*
X113101699Y-60099051D01*
X113050365Y-60068548D01*
X112981131Y-60027753D01*
X112923118Y-59993923D01*
X112844210Y-59948318D01*
X112844210Y-60196583D01*
X112844210Y-60444848D01*
X112773259Y-60444848D01*
X112773149Y-60444445D01*
X112766653Y-60381339D01*
X112762759Y-60287354D01*
X112761394Y-60161362D01*
X112761395Y-60114563D01*
X112761933Y-60023730D01*
X112763659Y-59958825D01*
X112767107Y-59914702D01*
X112772811Y-59886216D01*
X112775082Y-59881404D01*
X112910659Y-59881404D01*
X112911395Y-59883154D01*
X112930390Y-59899312D01*
X112969857Y-59925713D01*
X113022791Y-59957596D01*
X113045335Y-59970606D01*
X113110382Y-60008248D01*
X113192054Y-60055602D01*
X113282136Y-60107905D01*
X113372416Y-60160393D01*
X113430386Y-60194035D01*
X113502308Y-60235497D01*
X113559972Y-60268412D01*
X113598570Y-60290039D01*
X113613293Y-60297639D01*
X113615231Y-60296628D01*
X113638214Y-60283462D01*
X113682839Y-60257485D01*
X113743858Y-60221760D01*
X113816022Y-60179349D01*
X113832175Y-60169849D01*
X113935402Y-60109414D01*
X114061668Y-60035869D01*
X114206066Y-59952053D01*
X114363692Y-59860808D01*
X114529637Y-59764975D01*
X114698997Y-59667393D01*
X114866865Y-59570905D01*
X114880071Y-59563310D01*
X114962998Y-59514601D01*
X115019976Y-59478674D01*
X115054105Y-59453259D01*
X115068483Y-59436086D01*
X115066211Y-59424884D01*
X115061399Y-59421078D01*
X115031061Y-59401174D01*
X114979462Y-59369587D01*
X114911585Y-59329177D01*
X114832417Y-59282806D01*
X114746943Y-59233334D01*
X114660147Y-59183622D01*
X114577015Y-59136530D01*
X114502533Y-59094920D01*
X114441685Y-59061652D01*
X114399458Y-59039588D01*
X114380835Y-59031587D01*
X114371036Y-59034546D01*
X114349699Y-59044571D01*
X114314801Y-59062881D01*
X114264183Y-59090689D01*
X114195687Y-59129209D01*
X114107153Y-59179656D01*
X113996422Y-59243244D01*
X113861337Y-59321187D01*
X113699737Y-59414701D01*
X113638504Y-59450168D01*
X113491324Y-59535405D01*
X113368995Y-59606223D01*
X113268678Y-59664261D01*
X113187534Y-59711161D01*
X113122721Y-59748564D01*
X113071400Y-59778110D01*
X113030730Y-59801441D01*
X112997873Y-59820196D01*
X112958452Y-59843888D01*
X112923943Y-59867723D01*
X112910659Y-59881404D01*
X112775082Y-59881404D01*
X112781305Y-59868220D01*
X112793122Y-59855569D01*
X112814536Y-59840912D01*
X112861059Y-59811924D01*
X112928271Y-59771325D01*
X113012025Y-59721596D01*
X113108177Y-59665216D01*
X113212579Y-59604665D01*
X113264480Y-59574721D01*
X113398787Y-59497196D01*
X113542194Y-59414377D01*
X113685231Y-59331737D01*
X113818426Y-59254746D01*
X113932307Y-59188876D01*
X113979755Y-59161432D01*
X114075893Y-59105900D01*
X114163252Y-59055538D01*
X114236841Y-59013217D01*
X114291669Y-58981810D01*
X114322742Y-58964190D01*
X114380934Y-58931766D01*
X114779577Y-59160556D01*
X114787453Y-59165078D01*
X114892111Y-59225324D01*
X114987585Y-59280583D01*
X115069942Y-59328557D01*
X115135249Y-59366946D01*
X115179574Y-59393451D01*
X115198985Y-59405772D01*
X115200088Y-59407075D01*
X115204013Y-59420416D01*
X115205923Y-59436086D01*
G37*
G36*
X118351143Y-59435514D02*
G01*
X118351143Y-60516416D01*
X118351143Y-60599839D01*
X118351143Y-60665001D01*
X118351143Y-61446697D01*
X118351143Y-61521688D01*
X118351143Y-61917899D01*
X118234858Y-61985958D01*
X118208976Y-62001094D01*
X118157851Y-62030926D01*
X118099544Y-62064859D01*
X118031355Y-62104457D01*
X117950584Y-62151282D01*
X117854534Y-62206898D01*
X117740505Y-62272868D01*
X117605797Y-62350757D01*
X117447713Y-62442126D01*
X117384035Y-62478921D01*
X117263551Y-62548540D01*
X117187336Y-62592351D01*
X117065284Y-62661470D01*
X116958098Y-62720825D01*
X116868508Y-62768960D01*
X116799245Y-62804419D01*
X116753040Y-62825747D01*
X116732625Y-62831489D01*
X116731301Y-62830949D01*
X116704264Y-62817186D01*
X116654446Y-62789768D01*
X116586541Y-62751432D01*
X116505243Y-62704916D01*
X116415249Y-62652959D01*
X116321251Y-62598299D01*
X116227944Y-62543674D01*
X116140023Y-62491821D01*
X116062183Y-62445480D01*
X115999117Y-62407387D01*
X115955521Y-62380282D01*
X115936089Y-62366902D01*
X115931553Y-62360748D01*
X115924190Y-62338042D01*
X115918930Y-62298185D01*
X115915493Y-62237161D01*
X115913599Y-62150956D01*
X115912968Y-62035555D01*
X115912968Y-62035195D01*
X115913172Y-61960461D01*
X115986653Y-61960461D01*
X115987610Y-62068647D01*
X115992215Y-62313472D01*
X116346174Y-62518711D01*
X116420964Y-62561981D01*
X116511818Y-62614265D01*
X116589875Y-62658863D01*
X116651158Y-62693516D01*
X116691689Y-62715965D01*
X116707488Y-62723951D01*
X116708710Y-62720494D01*
X116711044Y-62691442D01*
X116712830Y-62637635D01*
X116713911Y-62564865D01*
X116714130Y-62478921D01*
X116713416Y-62233892D01*
X116365587Y-62034650D01*
X116298339Y-61996207D01*
X116206279Y-61943849D01*
X116126266Y-61898660D01*
X116062487Y-61862991D01*
X116019129Y-61839192D01*
X116000380Y-61829615D01*
X115993149Y-61841481D01*
X115988491Y-61884900D01*
X115986653Y-61960461D01*
X115913172Y-61960461D01*
X115913234Y-61937594D01*
X115914102Y-61852153D01*
X115915465Y-61784138D01*
X115916734Y-61751355D01*
X116036645Y-61751355D01*
X116045146Y-61756517D01*
X116078914Y-61776250D01*
X116134621Y-61808518D01*
X116208278Y-61851017D01*
X116295896Y-61901444D01*
X116393486Y-61957493D01*
X116465566Y-61998775D01*
X116556248Y-62050476D01*
X116634082Y-62094580D01*
X116695084Y-62128840D01*
X116735267Y-62151010D01*
X116750647Y-62158843D01*
X116752703Y-62158084D01*
X116775743Y-62145948D01*
X116818117Y-62122109D01*
X116872660Y-62090577D01*
X116928279Y-62058130D01*
X117020030Y-62004782D01*
X117123736Y-61944638D01*
X117234314Y-61880633D01*
X117346675Y-61815704D01*
X117455736Y-61752785D01*
X117556411Y-61694813D01*
X117643614Y-61644724D01*
X117712260Y-61605452D01*
X117757263Y-61579934D01*
X117861094Y-61521688D01*
X117752942Y-61458945D01*
X117644791Y-61396203D01*
X117202519Y-61653079D01*
X117153606Y-61681458D01*
X117047425Y-61742848D01*
X116954082Y-61796529D01*
X116952197Y-61797613D01*
X116871473Y-61843728D01*
X116808801Y-61879172D01*
X116767729Y-61901922D01*
X116751808Y-61909954D01*
X116740584Y-61904809D01*
X116704482Y-61885534D01*
X116648365Y-61854498D01*
X116577088Y-61814390D01*
X116495502Y-61767900D01*
X116247633Y-61625846D01*
X116139435Y-61686354D01*
X116129397Y-61692000D01*
X116080468Y-61720595D01*
X116047316Y-61741793D01*
X116036645Y-61751355D01*
X115916734Y-61751355D01*
X115917219Y-61738815D01*
X115919258Y-61721451D01*
X115920676Y-61720502D01*
X115942517Y-61707389D01*
X115984079Y-61683086D01*
X116037899Y-61651964D01*
X116050849Y-61644445D01*
X116101288Y-61613765D01*
X116136680Y-61589977D01*
X116150031Y-61577711D01*
X116149597Y-61576586D01*
X116131994Y-61561804D01*
X116093788Y-61536296D01*
X116042067Y-61504846D01*
X116034240Y-61500240D01*
X115981836Y-61467884D01*
X115942312Y-61440949D01*
X115923707Y-61424869D01*
X115922448Y-61418655D01*
X115920097Y-61384626D01*
X115917980Y-61327056D01*
X115916174Y-61252363D01*
X115914757Y-61166968D01*
X115913805Y-61077291D01*
X115913397Y-60989751D01*
X115913611Y-60910768D01*
X115914012Y-60882593D01*
X115983058Y-60882593D01*
X115987637Y-61132379D01*
X115992215Y-61382164D01*
X116241398Y-61526732D01*
X116295457Y-61558042D01*
X116387918Y-61611377D01*
X116475169Y-61661461D01*
X116549378Y-61703804D01*
X116602713Y-61733914D01*
X116714845Y-61796529D01*
X116714261Y-61550070D01*
X116713785Y-61348827D01*
X117748796Y-61348827D01*
X117754444Y-61355916D01*
X117782057Y-61377678D01*
X117823861Y-61404687D01*
X117894308Y-61446697D01*
X117894308Y-61353004D01*
X117893082Y-61313174D01*
X117888559Y-61276913D01*
X117881849Y-61265282D01*
X117878674Y-61266807D01*
X117804070Y-61304860D01*
X117760755Y-61332215D01*
X117748796Y-61348827D01*
X116713785Y-61348827D01*
X116713678Y-61303610D01*
X116553672Y-61212244D01*
X116475655Y-61167545D01*
X116380592Y-61112851D01*
X116280817Y-61055271D01*
X116188362Y-61001735D01*
X115983058Y-60882593D01*
X115914012Y-60882593D01*
X115914522Y-60846761D01*
X115915742Y-60815989D01*
X116045651Y-60815989D01*
X116053589Y-60829299D01*
X116078207Y-60843807D01*
X116084046Y-60846909D01*
X116119968Y-60866922D01*
X116178018Y-60899951D01*
X116253189Y-60943124D01*
X116340475Y-60993568D01*
X116434867Y-61048411D01*
X116471314Y-61069615D01*
X116559090Y-61120438D01*
X116635130Y-61164125D01*
X116695202Y-61198263D01*
X116735069Y-61220441D01*
X116750498Y-61228244D01*
X116750629Y-61228207D01*
X116767430Y-61219104D01*
X116809565Y-61195272D01*
X116873827Y-61158552D01*
X116957007Y-61110788D01*
X117055895Y-61053821D01*
X117167284Y-60989494D01*
X117287964Y-60919649D01*
X117292364Y-60917100D01*
X117413578Y-60846878D01*
X117526030Y-60781741D01*
X117626388Y-60723619D01*
X117711324Y-60674438D01*
X117777504Y-60636129D01*
X117821600Y-60610619D01*
X117840279Y-60599839D01*
X117839174Y-60586553D01*
X117809703Y-60561360D01*
X117753181Y-60525998D01*
X117645359Y-60463984D01*
X117197726Y-60722752D01*
X116950228Y-60865826D01*
X116750093Y-60981520D01*
X116498329Y-60837607D01*
X116246565Y-60693695D01*
X116160920Y-60739490D01*
X116153439Y-60743494D01*
X116092423Y-60777063D01*
X116057544Y-60799902D01*
X116045651Y-60815989D01*
X115915742Y-60815989D01*
X115916211Y-60804151D01*
X115920509Y-60796240D01*
X115946536Y-60773779D01*
X115988062Y-60747831D01*
X116004992Y-60738502D01*
X116063489Y-60705532D01*
X116113888Y-60676205D01*
X116169112Y-60643194D01*
X116052552Y-60578829D01*
X116038573Y-60571024D01*
X115984400Y-60539034D01*
X115943760Y-60512314D01*
X115924574Y-60495990D01*
X115923304Y-60491351D01*
X115920404Y-60459466D01*
X115919819Y-60446152D01*
X115983909Y-60446152D01*
X116126674Y-60530179D01*
X116167579Y-60554123D01*
X116221299Y-60585098D01*
X116259162Y-60606328D01*
X116274811Y-60614206D01*
X116277758Y-60615370D01*
X116302463Y-60628565D01*
X116346189Y-60653340D01*
X116401994Y-60685790D01*
X116407403Y-60688967D01*
X116480651Y-60731726D01*
X116556489Y-60775612D01*
X116619325Y-60811600D01*
X116714845Y-60865826D01*
X116714845Y-60618660D01*
X116714845Y-60419475D01*
X117749245Y-60419475D01*
X117754782Y-60426291D01*
X117782184Y-60447601D01*
X117823861Y-60474406D01*
X117894308Y-60516416D01*
X117894308Y-60424107D01*
X117893470Y-60385656D01*
X117890140Y-60346835D01*
X117885140Y-60331799D01*
X117862657Y-60339591D01*
X117827150Y-60359055D01*
X117789383Y-60383392D01*
X117759901Y-60405799D01*
X117749245Y-60419475D01*
X116714845Y-60419475D01*
X116714845Y-60371494D01*
X116594406Y-60303764D01*
X116567197Y-60288375D01*
X116498471Y-60249136D01*
X116413691Y-60200404D01*
X116321100Y-60146921D01*
X116228939Y-60093432D01*
X115983909Y-59950831D01*
X115983909Y-60198492D01*
X115983909Y-60446152D01*
X115919819Y-60446152D01*
X115917952Y-60403703D01*
X115915995Y-60330405D01*
X115914578Y-60245916D01*
X115913746Y-60156580D01*
X115913547Y-60068739D01*
X115914024Y-59988738D01*
X115915225Y-59922920D01*
X115917062Y-59880676D01*
X116047216Y-59880676D01*
X116048122Y-59884668D01*
X116055909Y-59891718D01*
X116073697Y-59903777D01*
X116104605Y-59922795D01*
X116151752Y-59950722D01*
X116218257Y-59989508D01*
X116307239Y-60041104D01*
X116421819Y-60107461D01*
X116475916Y-60138761D01*
X116564700Y-60189966D01*
X116640956Y-60233735D01*
X116700636Y-60267755D01*
X116739687Y-60289711D01*
X116754062Y-60297290D01*
X116754331Y-60297136D01*
X116771827Y-60286993D01*
X116813947Y-60262552D01*
X116877010Y-60225950D01*
X116957337Y-60179322D01*
X117051249Y-60124803D01*
X117155067Y-60064530D01*
X117219502Y-60027147D01*
X117356032Y-59948079D01*
X117500660Y-59864477D01*
X117644183Y-59781654D01*
X117777399Y-59704922D01*
X117891106Y-59639595D01*
X117953106Y-59603903D01*
X118048713Y-59547970D01*
X118119323Y-59505025D01*
X118167683Y-59473207D01*
X118196540Y-59450657D01*
X118208642Y-59435514D01*
X118206737Y-59425919D01*
X118199184Y-59420376D01*
X118165247Y-59398875D01*
X118109146Y-59365012D01*
X118035272Y-59321393D01*
X117948011Y-59270620D01*
X117851754Y-59215298D01*
X117518487Y-59024893D01*
X116789991Y-59445744D01*
X116753156Y-59467029D01*
X116612985Y-59548122D01*
X116482307Y-59623872D01*
X116363877Y-59692673D01*
X116260451Y-59752916D01*
X116174786Y-59802996D01*
X116109637Y-59841305D01*
X116067761Y-59866235D01*
X116051912Y-59876179D01*
X116050071Y-59877792D01*
X116047216Y-59880676D01*
X115917062Y-59880676D01*
X115917195Y-59877627D01*
X115919979Y-59859205D01*
X115927379Y-59853935D01*
X115958139Y-59834805D01*
X116012808Y-59802223D01*
X116092386Y-59755607D01*
X116197875Y-59694371D01*
X116330273Y-59617932D01*
X116490580Y-59525703D01*
X116563263Y-59483916D01*
X116694639Y-59408283D01*
X116830268Y-59330090D01*
X116961881Y-59254109D01*
X117081210Y-59185113D01*
X117179985Y-59127872D01*
X117195797Y-59118702D01*
X117284939Y-59067357D01*
X117364915Y-59021855D01*
X117430848Y-58984932D01*
X117477862Y-58959324D01*
X117501080Y-58947765D01*
X117506996Y-58946508D01*
X117542578Y-58953669D01*
X117600967Y-58979963D01*
X117683813Y-59026098D01*
X117720017Y-59047339D01*
X117800402Y-59094231D01*
X117895454Y-59149435D01*
X117996197Y-59207742D01*
X118093654Y-59263943D01*
X118351143Y-59412104D01*
X118351143Y-59435514D01*
G37*
D13*
%TO.C,U34*%
X158925000Y-55970000D02*
X160325000Y-55970000D01*
X160325000Y-58290000D02*
X158425000Y-58290000D01*
%TO.C,U35*%
D14*
X173573000Y-63861000D02*
G75*
G03*
X173573000Y-63861000I-157000J0D01*
G01*
%TO.C,U8*%
X164064000Y-63861000D02*
G75*
G03*
X164064000Y-63861000I-157000J0D01*
G01*
%TD*%
%LPC*%
%TO.C,U1*%
G36*
X174580000Y-67750000D02*
G01*
X153880000Y-67750000D01*
X143680000Y-67250000D01*
X111080000Y-67250000D01*
X111080000Y-65350000D01*
X174580000Y-65350000D01*
X174580000Y-67750000D01*
G37*
D13*
X174580000Y-67750000D02*
X153880000Y-67750000D01*
X143680000Y-67250000D01*
X111080000Y-67250000D01*
X111080000Y-65350000D01*
X174580000Y-65350000D01*
X174580000Y-67750000D01*
G36*
X238330000Y-67250000D02*
G01*
X219330000Y-67250000D01*
X209130000Y-67750000D01*
X179930000Y-67750000D01*
X179930000Y-65350000D01*
X238330000Y-65350000D01*
X238330000Y-67250000D01*
G37*
X238330000Y-67250000D02*
X219330000Y-67250000D01*
X209130000Y-67750000D01*
X179930000Y-67750000D01*
X179930000Y-65350000D01*
X238330000Y-65350000D01*
X238330000Y-67250000D01*
%TO.C,TP69*%
D15*
X169380000Y-51300000D02*
G75*
G03*
X169380000Y-51300000I-200000J0D01*
G01*
%TO.C,TP52*%
X195730000Y-55080000D02*
G75*
G03*
X195730000Y-55080000I-200000J0D01*
G01*
%TO.C,TP36*%
X114120000Y-51310000D02*
G75*
G03*
X114120000Y-51310000I-200000J0D01*
G01*
%TO.C,TP53*%
X172770000Y-51330000D02*
G75*
G03*
X172770000Y-51330000I-200000J0D01*
G01*
%TO.C,TP61*%
X160880000Y-51310000D02*
G75*
G03*
X160880000Y-51310000I-200000J0D01*
G01*
%TO.C,TP35*%
X113270000Y-49930000D02*
G75*
G03*
X113270000Y-49930000I-200000J0D01*
G01*
%TO.C,TP48*%
X167670000Y-51380000D02*
G75*
G03*
X167670000Y-51380000I-200000J0D01*
G01*
%TO.C,TP49*%
X191460000Y-53640000D02*
G75*
G03*
X191460000Y-53640000I-200000J0D01*
G01*
%TO.C,TP54*%
X186380000Y-53740000D02*
G75*
G03*
X186380000Y-53740000I-200000J0D01*
G01*
%TO.C,TP40*%
X160020000Y-49930000D02*
G75*
G03*
X160020000Y-49930000I-200000J0D01*
G01*
%TO.C,TP44*%
X164270000Y-51330000D02*
G75*
G03*
X164270000Y-51330000I-200000J0D01*
G01*
%TO.C,TP42*%
X162570000Y-51330000D02*
G75*
G03*
X162570000Y-51330000I-200000J0D01*
G01*
%TO.C,TP68*%
X194870000Y-53730000D02*
G75*
G03*
X194870000Y-53730000I-200000J0D01*
G01*
%TO.C,TP43*%
X194030000Y-55050000D02*
G75*
G03*
X194030000Y-55050000I-200000J0D01*
G01*
%TO.C,TP56*%
X182120000Y-55130000D02*
G75*
G03*
X182120000Y-55130000I-200000J0D01*
G01*
%TO.C,TP58*%
X159200000Y-51280000D02*
G75*
G03*
X159200000Y-51280000I-200000J0D01*
G01*
%TO.C,TP38*%
X116670000Y-49930000D02*
G75*
G03*
X116670000Y-49930000I-200000J0D01*
G01*
%TO.C,TP59*%
X187220000Y-55130000D02*
G75*
G03*
X187220000Y-55130000I-200000J0D01*
G01*
%TO.C,TP51*%
X171920000Y-49930000D02*
G75*
G03*
X171920000Y-49930000I-200000J0D01*
G01*
%TO.C,TP64*%
X163420000Y-49930000D02*
G75*
G03*
X163420000Y-49930000I-200000J0D01*
G01*
%TO.C,TP45*%
X165120000Y-49930000D02*
G75*
G03*
X165120000Y-49930000I-200000J0D01*
G01*
%TO.C,TP62*%
X189770000Y-53710000D02*
G75*
G03*
X189770000Y-53710000I-200000J0D01*
G01*
%TO.C,TP66*%
X193170000Y-53730000D02*
G75*
G03*
X193170000Y-53730000I-200000J0D01*
G01*
%TO.C,TP60*%
X188070000Y-53730000D02*
G75*
G03*
X188070000Y-53730000I-200000J0D01*
G01*
%TO.C,TP39*%
X158320000Y-49930000D02*
G75*
G03*
X158320000Y-49930000I-200000J0D01*
G01*
%TO.C,TP63*%
X190620000Y-55180000D02*
G75*
G03*
X190620000Y-55180000I-200000J0D01*
G01*
%TO.C,TP57*%
X182970000Y-53730000D02*
G75*
G03*
X182970000Y-53730000I-200000J0D01*
G01*
%TO.C,TP65*%
X192320000Y-55130000D02*
G75*
G03*
X192320000Y-55130000I-200000J0D01*
G01*
%TO.C,TP67*%
X168510000Y-49930000D02*
G75*
G03*
X168510000Y-49930000I-200000J0D01*
G01*
%TO.C,TP41*%
X161720000Y-49880000D02*
G75*
G03*
X161720000Y-49880000I-200000J0D01*
G01*
%TO.C,TP50*%
X188920000Y-55090000D02*
G75*
G03*
X188920000Y-55090000I-200000J0D01*
G01*
%TO.C,TP47*%
X166820000Y-49930000D02*
G75*
G03*
X166820000Y-49930000I-200000J0D01*
G01*
%TD*%
D16*
%TO.C,U28*%
X168474999Y-54949999D03*
X168474999Y-54299999D03*
X168474999Y-53649999D03*
X170374999Y-53649999D03*
X170374999Y-54299999D03*
X170374999Y-54949999D03*
%TD*%
D17*
%TO.C,U2*%
X111379999Y-47259999D03*
X112229999Y-47259999D03*
X113079999Y-47259999D03*
X113929999Y-47259999D03*
X114779999Y-47259999D03*
X115629999Y-47259999D03*
X116479999Y-47259999D03*
X117329999Y-47259999D03*
X118179999Y-47259999D03*
X119029999Y-47259999D03*
X119879999Y-47259999D03*
X120729999Y-47259999D03*
X121579999Y-47259999D03*
X122429999Y-47259999D03*
X123279999Y-47259999D03*
X124129999Y-47259999D03*
X124979999Y-47259999D03*
X125829999Y-47259999D03*
X126679999Y-47259999D03*
X127529999Y-47259999D03*
X128379999Y-47259999D03*
X129229999Y-47259999D03*
X130079999Y-47259999D03*
X130929999Y-47259999D03*
X131779999Y-47259999D03*
X132629999Y-47259999D03*
X133479999Y-47259999D03*
X134329999Y-47259999D03*
X135179999Y-47259999D03*
X136029999Y-47259999D03*
X136879999Y-47259999D03*
X137729999Y-47259999D03*
X138579999Y-47259999D03*
X139429999Y-47259999D03*
X140279999Y-47259999D03*
X141129999Y-47259999D03*
X141979999Y-47259999D03*
X142829999Y-47259999D03*
X143679999Y-47259999D03*
X144529999Y-47259999D03*
X145379999Y-47259999D03*
X146229999Y-47259999D03*
X147079999Y-47259999D03*
X147929999Y-47259999D03*
X148779999Y-47259999D03*
X149629999Y-47259999D03*
X150479999Y-47259999D03*
X151329999Y-47259999D03*
X152179999Y-47259999D03*
X153029999Y-47259999D03*
X153879999Y-47259999D03*
X154729999Y-47259999D03*
X155579999Y-47259999D03*
X156429999Y-47259999D03*
X157279999Y-47259999D03*
X158129999Y-47259999D03*
X158979999Y-47259999D03*
X159829999Y-47259999D03*
X160679999Y-47259999D03*
X161529999Y-47259999D03*
X162379999Y-47259999D03*
X163229999Y-47259999D03*
X164079999Y-47259999D03*
X164929999Y-47259999D03*
X165779999Y-47259999D03*
X166629999Y-47259999D03*
X167479999Y-47259999D03*
X168329999Y-47259999D03*
X169179999Y-47259999D03*
X170029999Y-47259999D03*
X170879999Y-47259999D03*
X171729999Y-47259999D03*
X172579999Y-47259999D03*
X173429999Y-47259999D03*
X174279999Y-47259999D03*
X180229999Y-47259999D03*
X181079999Y-47259999D03*
X181929999Y-47259999D03*
X182779999Y-47259999D03*
X183629999Y-47259999D03*
X184479999Y-47259999D03*
X185329999Y-47259999D03*
X186179999Y-47259999D03*
X187029999Y-47259999D03*
X187879999Y-47259999D03*
X188729999Y-47259999D03*
X189579999Y-47259999D03*
X190429999Y-47259999D03*
X191279999Y-47259999D03*
X192129999Y-47259999D03*
X192979999Y-47259999D03*
X193829999Y-47259999D03*
X194679999Y-47259999D03*
X195529999Y-47259999D03*
X196379999Y-47259999D03*
X197229999Y-47259999D03*
X198079999Y-47259999D03*
X198929999Y-47259999D03*
X199779999Y-47259999D03*
X200629999Y-47259999D03*
X201479999Y-47259999D03*
X202329999Y-47259999D03*
X203179999Y-47259999D03*
X204029999Y-47259999D03*
X204879999Y-47259999D03*
X205729999Y-47259999D03*
X206579999Y-47259999D03*
X207429999Y-47259999D03*
X208279999Y-47259999D03*
X209129999Y-47259999D03*
X209979999Y-47259999D03*
X210829999Y-47259999D03*
X211679999Y-47259999D03*
X212529999Y-47259999D03*
X213379999Y-47259999D03*
X214229999Y-47259999D03*
X215079999Y-47259999D03*
X215929999Y-47259999D03*
X216779999Y-47259999D03*
X217629999Y-47259999D03*
X218479999Y-47259999D03*
X219329999Y-47259999D03*
X220179999Y-47259999D03*
X221029999Y-47259999D03*
X221879999Y-47259999D03*
X222729999Y-47259999D03*
X223579999Y-47259999D03*
X224429999Y-47259999D03*
X225279999Y-47259999D03*
X226129999Y-47259999D03*
X226979999Y-47259999D03*
X227829999Y-47259999D03*
X228679999Y-47259999D03*
X229529999Y-47259999D03*
X230379999Y-47259999D03*
X231229999Y-47259999D03*
X232079999Y-47259999D03*
X232929999Y-47259999D03*
X233779999Y-47259999D03*
X234629999Y-47259999D03*
X235479999Y-47259999D03*
X236329999Y-47259999D03*
X237179999Y-47259999D03*
X238029999Y-47259999D03*
%TD*%
D18*
%TO.C,U12*%
X166146000Y-63510000D03*
D19*
X165646000Y-63510000D03*
X165146000Y-63510000D03*
D18*
X164646000Y-63510000D03*
D20*
X164496000Y-62835000D03*
D18*
X164646000Y-62160000D03*
D19*
X165146000Y-62160000D03*
X165646000Y-62160000D03*
D18*
X166146000Y-62160000D03*
D20*
X166296000Y-62835000D03*
%TD*%
D18*
%TO.C,U26*%
X169159000Y-63530000D03*
D19*
X168659000Y-63530000D03*
X168159000Y-63530000D03*
D18*
X167659000Y-63530000D03*
D20*
X167509000Y-62855000D03*
D18*
X167659000Y-62180000D03*
D19*
X168159000Y-62180000D03*
X168659000Y-62180000D03*
D18*
X169159000Y-62180000D03*
D20*
X169309000Y-62855000D03*
%TD*%
D16*
%TO.C,U21*%
X165224999Y-57799999D03*
X165224999Y-57149999D03*
X165224999Y-56499999D03*
X167124999Y-56499999D03*
X167124999Y-57149999D03*
X167124999Y-57799999D03*
%TD*%
D21*
%TO.C,R1*%
X174050000Y-51045000D03*
X174050000Y-52695000D03*
%TD*%
D18*
%TO.C,U6*%
X161592000Y-60450000D03*
D19*
X161092000Y-60450000D03*
X160592000Y-60450000D03*
D18*
X160092000Y-60450000D03*
D20*
X159942000Y-59775000D03*
D18*
X160092000Y-59100000D03*
D19*
X160592000Y-59100000D03*
X161092000Y-59100000D03*
D18*
X161592000Y-59100000D03*
D20*
X161742000Y-59775000D03*
%TD*%
D16*
%TO.C,U17*%
X161969999Y-57789999D03*
X161969999Y-57139999D03*
X161969999Y-56489999D03*
X163869999Y-56489999D03*
X163869999Y-57139999D03*
X163869999Y-57789999D03*
%TD*%
%TO.C,U15*%
X161974999Y-54929999D03*
X161974999Y-54279999D03*
X161974999Y-53629999D03*
X163874999Y-53629999D03*
X163874999Y-54279999D03*
X163874999Y-54929999D03*
%TD*%
%TO.C,U30*%
X168474999Y-57799999D03*
X168474999Y-57149999D03*
X168474999Y-56499999D03*
X170374999Y-56499999D03*
X170374999Y-57149999D03*
X170374999Y-57799999D03*
%TD*%
%TO.C,U19*%
X165224999Y-54949999D03*
X165224999Y-54299999D03*
X165224999Y-53649999D03*
X167124999Y-53649999D03*
X167124999Y-54299999D03*
X167124999Y-54949999D03*
%TD*%
D18*
%TO.C,U24*%
X167621000Y-60495000D03*
D19*
X167121000Y-60495000D03*
X166621000Y-60495000D03*
D18*
X166121000Y-60495000D03*
D20*
X165971000Y-59820000D03*
D18*
X166121000Y-59145000D03*
D19*
X166621000Y-59145000D03*
X167121000Y-59145000D03*
D18*
X167621000Y-59145000D03*
D20*
X167771000Y-59820000D03*
%TD*%
D18*
%TO.C,U33*%
X160192000Y-63525000D03*
D19*
X159692000Y-63525000D03*
X159192000Y-63525000D03*
D18*
X158692000Y-63525000D03*
D20*
X158542000Y-62850000D03*
D18*
X158692000Y-62175000D03*
D19*
X159192000Y-62175000D03*
X159692000Y-62175000D03*
D18*
X160192000Y-62175000D03*
D20*
X160342000Y-62850000D03*
%TD*%
D22*
%TO.C,D1*%
X173925000Y-56027500D03*
X173925000Y-54152500D03*
%TD*%
D18*
%TO.C,U10*%
X164583000Y-60475000D03*
D19*
X164083000Y-60475000D03*
X163583000Y-60475000D03*
D18*
X163083000Y-60475000D03*
D20*
X162933000Y-59800000D03*
D18*
X163083000Y-59125000D03*
D19*
X163583000Y-59125000D03*
X164083000Y-59125000D03*
D18*
X164583000Y-59125000D03*
D20*
X164733000Y-59800000D03*
%TD*%
D23*
%TO.C,J1*%
X175810000Y-61849995D03*
X178709999Y-61349995D03*
X175810000Y-60849995D03*
X178709999Y-60349995D03*
X175810000Y-59849995D03*
X178709999Y-59349995D03*
X175810000Y-58849995D03*
X178709999Y-58349995D03*
X175810000Y-57849995D03*
X178709999Y-57349995D03*
X175810000Y-56849995D03*
X178709999Y-56349995D03*
X175810000Y-55849995D03*
X178709999Y-55349995D03*
X175810000Y-54849995D03*
X178709999Y-54349995D03*
X175810000Y-53849995D03*
X178709999Y-53349995D03*
X175810000Y-52849995D03*
X178709999Y-52349995D03*
X175810000Y-51849995D03*
X178709999Y-51349995D03*
X175810000Y-50849995D03*
X178709999Y-50349995D03*
D24*
X175909999Y-62849999D03*
X175909999Y-49350021D03*
X178609999Y-62849999D03*
X178609999Y-49350021D03*
%TD*%
D16*
%TO.C,U34*%
X158674999Y-57779999D03*
X158674999Y-57129999D03*
X158674999Y-56479999D03*
X160574999Y-56479999D03*
X160574999Y-57129999D03*
X160574999Y-57779999D03*
%TD*%
D18*
%TO.C,U35*%
X172642000Y-63520000D03*
D19*
X172142000Y-63520000D03*
X171642000Y-63520000D03*
D18*
X171142000Y-63520000D03*
D20*
X170992000Y-62845000D03*
D18*
X171142000Y-62170000D03*
D19*
X171642000Y-62170000D03*
X172142000Y-62170000D03*
D18*
X172642000Y-62170000D03*
D20*
X172792000Y-62845000D03*
%TD*%
D18*
%TO.C,U8*%
X163133000Y-63520000D03*
D19*
X162633000Y-63520000D03*
X162133000Y-63520000D03*
D18*
X161633000Y-63520000D03*
D20*
X161483000Y-62845000D03*
D18*
X161633000Y-62170000D03*
D19*
X162133000Y-62170000D03*
X162633000Y-62170000D03*
D18*
X163133000Y-62170000D03*
D20*
X163283000Y-62845000D03*
%TD*%
M02*
