M48
; DRILL file {KiCad 7.0.0} date Tue 11 Apr 2023 04:47:54 PM CEST
; FORMAT={-:-/ absolute / metric / decimal}
; #@! TF.CreationDate,2023-04-11T16:47:54+02:00
; #@! TF.GenerationSoftware,Kicad,Pcbnew,7.0.0
; #@! TF.FileFunction,MixedPlating,1,6
FMAT,2
METRIC
; #@! TA.AperFunction,Plated,PTH,ViaDrill
T1C0.300
%
G90
G05
T1
X108.81Y-62.84
X108.89Y-61.06
X108.9Y-55.88
X108.96Y-54.21
X110.17Y-61.06
X110.24Y-62.69
X110.35Y-54.19
X110.4Y-55.92
X110.66Y-50.95
X111.38Y-48.895
X111.38Y-49.645
X111.38Y-50.465
X111.38Y-62.22
X111.38Y-63.08
X111.38Y-63.96
X113.5Y-64.34
X113.51Y-48.79
X114.35Y-64.34
X114.36Y-48.79
X115.2Y-64.34
X115.21Y-48.79
X116.05Y-64.34
X116.06Y-48.79
X116.9Y-64.34
X116.91Y-48.79
X117.75Y-64.34
X117.76Y-48.79
X118.6Y-64.34
X118.61Y-48.79
X119.45Y-64.34
X119.46Y-48.79
X120.3Y-64.34
X120.31Y-48.79
X121.15Y-64.34
X121.16Y-48.79
X122.85Y-64.34
X122.86Y-48.79
X123.7Y-64.34
X123.71Y-48.79
X124.55Y-64.34
X124.56Y-48.79
X125.4Y-64.34
X125.41Y-48.79
X126.25Y-64.34
X126.26Y-48.79
X127.1Y-64.34
X127.11Y-48.79
X127.95Y-64.34
X127.96Y-48.79
X128.8Y-64.34
X128.81Y-48.79
X129.65Y-64.34
X129.66Y-48.79
X130.5Y-64.34
X130.51Y-48.79
X132.2Y-64.34
X132.21Y-48.79
X133.05Y-64.34
X133.06Y-48.79
X133.9Y-64.34
X133.91Y-48.79
X134.75Y-64.34
X134.76Y-48.79
X135.6Y-64.34
X135.61Y-48.79
X136.45Y-64.34
X136.46Y-48.79
X137.3Y-64.34
X137.31Y-48.79
X138.15Y-64.34
X138.16Y-48.79
X139.0Y-64.34
X139.01Y-48.79
X140.7Y-64.34
X140.71Y-48.79
X141.55Y-64.34
X141.56Y-48.79
X142.4Y-64.34
X142.41Y-48.79
X143.25Y-64.34
X143.26Y-48.79
X144.1Y-64.34
X144.11Y-48.79
X144.95Y-64.34
X144.96Y-48.79
X145.8Y-64.34
X145.81Y-48.79
X146.65Y-64.34
X146.66Y-48.79
X147.5Y-64.34
X147.51Y-48.79
X148.35Y-64.34
X148.36Y-48.79
X150.0Y-48.78
X150.05Y-64.34
X150.9Y-64.34
X150.91Y-48.79
X151.75Y-64.34
X151.76Y-48.79
X152.6Y-64.34
X152.61Y-48.79
X153.45Y-64.34
X153.46Y-48.79
X154.3Y-64.34
X154.31Y-48.79
X155.15Y-64.34
X155.16Y-48.79
X156.0Y-60.22
X156.0Y-64.34
X156.01Y-48.79
X156.03Y-60.84
X156.85Y-64.34
X156.86Y-48.79
X156.98Y-50.24
X157.0Y-50.87
X158.3Y-64.0
X158.4Y-60.9
X158.5Y-58.55
X158.54Y-59.7
X158.56Y-48.79
X158.65Y-61.44
X158.65Y-64.58
X158.68Y-52.7
X158.7Y-54.25
X158.7Y-55.5
X158.7Y-57.2
X159.0Y-65.13
X159.4Y-54.9
X159.41Y-48.79
X159.425Y-62.975
X159.6Y-57.15
X159.6Y-59.29
X159.6Y-60.9
X159.65Y-56.6
X159.65Y-60.3
X160.1Y-61.5
X160.225Y-55.825
X160.26Y-48.79
X160.26Y-58.32
X160.3Y-64.78
X160.45Y-64.2
X160.6Y-53.0
X160.6Y-54.2
X160.6Y-55.4
X160.6Y-57.1
X160.65Y-65.2
X160.7Y-59.75
X160.85Y-55.89
X161.11Y-48.79
X161.25Y-61.6
X161.5Y-58.35
X161.6Y-61.1
X161.7Y-64.3
X161.8Y-52.35
X161.8Y-55.45
X161.85Y-61.6
X161.95Y-53.0
X161.95Y-54.3
X161.95Y-57.15
X161.96Y-48.79
X162.05Y-58.35
X162.1Y-59.1
X162.15Y-62.83
X162.7Y-60.9
X162.81Y-48.79
X162.85Y-61.5
X162.9Y-64.93
X163.05Y-58.5
X163.15Y-51.83
X163.26Y-61.06
X163.4Y-64.23
X163.55Y-55.95
X163.55Y-65.0
X163.66Y-48.79
X163.85Y-52.95
X163.85Y-55.45
X163.85Y-57.15
X163.855Y-54.265
X164.0Y-58.35
X164.1Y-59.85
X164.1Y-62.15
X164.15Y-55.95
X164.3Y-61.55
X164.5Y-53.0
X164.5Y-53.65
X164.5Y-65.05
X164.51Y-48.79
X164.55Y-55.15
X164.55Y-57.6
X164.55Y-64.284
X164.6Y-61.1
X164.65Y-58.5
X164.75Y-52.45
X165.1Y-53.05
X165.1Y-59.3
X165.2Y-54.25
X165.2Y-55.9
X165.2Y-57.15
X165.2Y-58.65
X165.2Y-62.83
X165.36Y-48.79
X165.7Y-60.95
X165.8Y-65.18
X165.875Y-61.6
X166.1Y-58.55
X166.2Y-64.18
X166.21Y-48.79
X166.25Y-61.2
X166.6Y-62.2
X166.6Y-63.7
X166.79Y-52.56
X166.875Y-51.925
X167.0Y-53.06
X167.0Y-55.95
X167.05Y-64.85
X167.06Y-48.79
X167.1Y-54.25
X167.1Y-57.15
X167.1Y-58.35
X167.15Y-59.85
X167.3Y-55.5
X167.45Y-61.05
X167.55Y-56.0
X167.671Y-64.129
X167.76Y-61.55
X167.9Y-58.55
X167.91Y-48.79
X168.0Y-61.0
X168.15Y-59.2
X168.2Y-62.83
X168.22Y-51.96
X168.35Y-65.18
X168.45Y-54.25
X168.45Y-55.5
X168.45Y-57.15
X168.76Y-48.79
X168.8Y-60.95
X169.1Y-58.5
X169.1Y-61.5
X169.14Y-64.21
X169.15Y-57.85
X169.6Y-61.15
X169.61Y-48.79
X169.7Y-63.5
X170.1Y-51.88
X170.15Y-59.875
X170.35Y-57.15
X170.4Y-53.0
X170.4Y-54.25
X170.4Y-55.9
X170.45Y-58.4
X170.46Y-48.79
X170.575Y-62.425
X170.65Y-61.35
X170.9Y-65.18
X171.07Y-53.39
X171.08Y-55.36
X171.1Y-57.8
X171.1Y-58.7
X171.19Y-60.71
X171.312Y-56.662
X171.33Y-52.55
X171.47Y-53.91
X171.59Y-54.69
X171.85Y-62.83
X172.0Y-57.89
X172.05Y-58.8
X172.1Y-59.35
X172.55Y-61.39
X172.9Y-53.21
X173.01Y-48.79
X173.1Y-62.11
X173.275Y-60.6
X173.43Y-65.21
X173.51Y-59.97
X173.73Y-56.84
X173.86Y-48.79
X173.9Y-63.7
X173.9Y-64.7
X173.95Y-58.79
X173.95Y-59.4
X174.0Y-58.2
X174.1Y-60.6
X174.1Y-61.1
X174.1Y-61.6
X174.26Y-54.99
X174.35Y-50.3
X174.7Y-50.0
X174.8Y-64.7
X174.83Y-53.35
X174.875Y-58.025
X174.88Y-57.08
X175.0Y-48.4
X176.9Y-63.75
X176.95Y-50.9
X176.95Y-51.9
X176.95Y-52.9
X176.95Y-53.9
X176.95Y-54.9
X176.95Y-55.9
X176.95Y-56.9
X177.0Y-58.0
X177.44Y-50.41
X177.45Y-52.4
X177.45Y-53.4
X177.45Y-54.4
X177.45Y-55.4
X177.45Y-56.4
X177.45Y-57.4
X177.66Y-51.41
X177.7Y-60.9
X177.7Y-63.65
X177.8Y-64.8
X177.95Y-60.15
X177.95Y-61.9
X178.2Y-46.8
X178.2Y-48.0
X178.6Y-64.05
X179.4Y-46.8
X179.4Y-48.0
X179.4Y-64.8
X179.7Y-58.15
X179.7Y-59.15
X179.7Y-60.9
X179.7Y-61.65
X179.7Y-64.05
X180.6Y-56.3
X180.6Y-57.0
X180.6Y-57.7
X180.6Y-58.4
X180.6Y-59.1
X180.6Y-59.8
X180.6Y-60.5
X180.6Y-61.2
X180.65Y-64.34
X180.685Y-48.79
X180.7Y-55.4
X180.7Y-62.05
X181.5Y-64.34
X181.535Y-48.79
X183.2Y-64.34
X183.235Y-48.79
X184.05Y-64.34
X184.085Y-48.79
X184.9Y-64.34
X184.935Y-48.79
X185.75Y-64.34
X185.785Y-48.79
X186.6Y-64.34
X186.635Y-48.79
X187.45Y-64.34
X187.485Y-48.79
X188.3Y-64.34
X188.335Y-48.79
X189.15Y-64.34
X189.185Y-48.79
X190.0Y-64.34
X190.035Y-48.79
X190.85Y-64.34
X190.885Y-48.79
X191.7Y-64.34
X191.735Y-48.79
X192.55Y-64.34
X192.585Y-48.79
X193.4Y-64.34
X193.435Y-48.79
X194.25Y-64.34
X194.285Y-48.79
X195.1Y-64.34
X195.135Y-48.79
X195.95Y-64.34
X195.985Y-48.79
X197.65Y-64.34
X197.685Y-48.79
X198.5Y-64.34
X198.535Y-48.79
X199.35Y-64.34
X199.385Y-48.79
X200.2Y-64.34
X200.235Y-48.79
X201.05Y-64.34
X201.085Y-48.79
X201.9Y-64.34
X201.935Y-48.79
X202.75Y-64.34
X202.785Y-48.79
X203.6Y-64.34
X203.635Y-48.79
X204.45Y-64.34
X204.485Y-48.79
X206.15Y-64.34
X206.185Y-48.79
X207.0Y-64.34
X207.035Y-48.79
X207.85Y-64.34
X207.885Y-48.79
X208.7Y-64.34
X208.735Y-48.79
X209.55Y-64.34
X209.585Y-48.79
X210.4Y-64.34
X210.435Y-48.79
X211.25Y-64.34
X211.285Y-48.79
X212.1Y-64.34
X212.135Y-48.79
X212.95Y-64.34
X212.985Y-48.79
X213.8Y-64.34
X213.835Y-48.79
X215.5Y-64.34
X215.535Y-48.79
X216.35Y-64.34
X216.385Y-48.79
X217.2Y-64.34
X217.235Y-48.79
X218.05Y-64.34
X218.085Y-48.79
X218.9Y-64.34
X218.935Y-48.79
X219.75Y-64.34
X219.785Y-48.79
X220.6Y-64.34
X220.635Y-48.79
X221.45Y-64.34
X221.485Y-48.79
X222.3Y-64.34
X222.335Y-48.79
X224.0Y-64.34
X224.035Y-48.79
X224.85Y-64.34
X224.885Y-48.79
X225.7Y-64.34
X225.735Y-48.79
X226.55Y-64.34
X226.585Y-48.79
X227.4Y-64.34
X227.435Y-48.79
X228.25Y-64.34
X228.285Y-48.79
X229.1Y-64.34
X229.135Y-48.79
X229.95Y-64.34
X229.985Y-48.79
X230.8Y-64.34
X230.835Y-48.79
X231.65Y-64.34
X231.685Y-48.79
X233.35Y-64.34
X233.385Y-48.79
X234.2Y-64.34
X234.235Y-48.79
X235.05Y-64.34
X235.085Y-48.79
X235.9Y-64.34
X235.935Y-48.79
X236.75Y-64.34
X236.785Y-48.79
X237.6Y-64.34
X237.635Y-48.79
X238.485Y-48.79
X238.73Y-60.88
X238.75Y-54.24
X238.76Y-50.81
X238.76Y-56.32
X238.82Y-62.55
X240.42Y-54.13
X240.46Y-60.8
X240.54Y-56.17
X240.58Y-62.52
T0
M30
