%TF.GenerationSoftware,KiCad,Pcbnew,7.0.0*%
%TF.CreationDate,2023-04-11T16:47:48+02:00*%
%TF.ProjectId,udimm_interposer,7564696d-6d5f-4696-9e74-6572706f7365,A*%
%TF.SameCoordinates,Original*%
%TF.FileFunction,Paste,Top*%
%TF.FilePolarity,Positive*%
%FSLAX46Y46*%
G04 Gerber Fmt 4.6, Leading zero omitted, Abs format (unit mm)*
G04 Created by KiCad (PCBNEW 7.0.0) date 2023-04-11 16:47:48*
%MOMM*%
%LPD*%
G01*
G04 APERTURE LIST*
G04 Aperture macros list*
%AMRoundRect*
0 Rectangle with rounded corners*
0 $1 Rounding radius*
0 $2 $3 $4 $5 $6 $7 $8 $9 X,Y pos of 4 corners*
0 Add a 4 corners polygon primitive as box body*
4,1,4,$2,$3,$4,$5,$6,$7,$8,$9,$2,$3,0*
0 Add four circle primitives for the rounded corners*
1,1,$1+$1,$2,$3*
1,1,$1+$1,$4,$5*
1,1,$1+$1,$6,$7*
1,1,$1+$1,$8,$9*
0 Add four rect primitives between the rounded corners*
20,1,$1+$1,$2,$3,$4,$5,0*
20,1,$1+$1,$4,$5,$6,$7,0*
20,1,$1+$1,$6,$7,$8,$9,0*
20,1,$1+$1,$8,$9,$2,$3,0*%
G04 Aperture macros list end*
%ADD10RoundRect,0.050000X0.075000X-0.225000X0.075000X0.225000X-0.075000X0.225000X-0.075000X-0.225000X0*%
%ADD11RoundRect,0.050000X0.050000X-0.225000X0.050000X0.225000X-0.050000X0.225000X-0.050000X-0.225000X0*%
%ADD12RoundRect,0.050000X0.250000X0.100000X-0.250000X0.100000X-0.250000X-0.100000X0.250000X-0.100000X0*%
%ADD13RoundRect,0.225000X-0.250000X0.225000X-0.250000X-0.225000X0.250000X-0.225000X0.250000X0.225000X0*%
%ADD14R,0.520000X2.200000*%
%ADD15R,0.650000X0.400000*%
%ADD16RoundRect,0.225000X0.250000X-0.225000X0.250000X0.225000X-0.250000X0.225000X-0.250000X-0.225000X0*%
%ADD17RoundRect,0.225000X0.225000X0.250000X-0.225000X0.250000X-0.225000X-0.250000X0.225000X-0.250000X0*%
%ADD18RoundRect,0.150000X-0.512500X-0.150000X0.512500X-0.150000X0.512500X0.150000X-0.512500X0.150000X0*%
G04 APERTURE END LIST*
D10*
%TO.C,U5*%
X160158000Y-60450000D03*
D11*
X160658000Y-60450000D03*
X161158000Y-60450000D03*
D10*
X161658000Y-60450000D03*
D12*
X161808000Y-59775000D03*
D10*
X161658000Y-59100000D03*
D11*
X161158000Y-59100000D03*
X160658000Y-59100000D03*
D10*
X160158000Y-59100000D03*
D12*
X160008000Y-59775000D03*
%TD*%
D13*
%TO.C,C1*%
X174990000Y-61620000D03*
X174990000Y-63170000D03*
%TD*%
D10*
%TO.C,U11*%
X164646000Y-63525000D03*
D11*
X165146000Y-63525000D03*
X165646000Y-63525000D03*
D10*
X166146000Y-63525000D03*
D12*
X166296000Y-62850000D03*
D10*
X166146000Y-62175000D03*
D11*
X165646000Y-62175000D03*
X165146000Y-62175000D03*
D10*
X164646000Y-62175000D03*
D12*
X164496000Y-62850000D03*
%TD*%
D10*
%TO.C,U27*%
X169159000Y-60470000D03*
D11*
X169659000Y-60470000D03*
X170159000Y-60470000D03*
D10*
X170659000Y-60470000D03*
D12*
X170809000Y-59795000D03*
D10*
X170659000Y-59120000D03*
D11*
X170159000Y-59120000D03*
X169659000Y-59120000D03*
D10*
X169159000Y-59120000D03*
D12*
X169009000Y-59795000D03*
%TD*%
D10*
%TO.C,U23*%
X171158000Y-63525000D03*
D11*
X171658000Y-63525000D03*
X172158000Y-63525000D03*
D10*
X172658000Y-63525000D03*
D12*
X172808000Y-62850000D03*
D10*
X172658000Y-62175000D03*
D11*
X172158000Y-62175000D03*
X171658000Y-62175000D03*
D10*
X171158000Y-62175000D03*
D12*
X171008000Y-62850000D03*
%TD*%
D14*
%TO.C,U2*%
X111379999Y-47259999D03*
X112229999Y-47259999D03*
X113079999Y-47259999D03*
X113929999Y-47259999D03*
X114779999Y-47259999D03*
X115629999Y-47259999D03*
X116479999Y-47259999D03*
X117329999Y-47259999D03*
X118179999Y-47259999D03*
X119029999Y-47259999D03*
X119879999Y-47259999D03*
X120729999Y-47259999D03*
X121579999Y-47259999D03*
X122429999Y-47259999D03*
X123279999Y-47259999D03*
X124129999Y-47259999D03*
X124979999Y-47259999D03*
X125829999Y-47259999D03*
X126679999Y-47259999D03*
X127529999Y-47259999D03*
X128379999Y-47259999D03*
X129229999Y-47259999D03*
X130079999Y-47259999D03*
X130929999Y-47259999D03*
X131779999Y-47259999D03*
X132629999Y-47259999D03*
X133479999Y-47259999D03*
X134329999Y-47259999D03*
X135179999Y-47259999D03*
X136029999Y-47259999D03*
X136879999Y-47259999D03*
X137729999Y-47259999D03*
X138579999Y-47259999D03*
X139429999Y-47259999D03*
X140279999Y-47259999D03*
X141129999Y-47259999D03*
X141979999Y-47259999D03*
X142829999Y-47259999D03*
X143679999Y-47259999D03*
X144529999Y-47259999D03*
X145379999Y-47259999D03*
X146229999Y-47259999D03*
X147079999Y-47259999D03*
X147929999Y-47259999D03*
X148779999Y-47259999D03*
X149629999Y-47259999D03*
X150479999Y-47259999D03*
X151329999Y-47259999D03*
X152179999Y-47259999D03*
X153029999Y-47259999D03*
X153879999Y-47259999D03*
X154729999Y-47259999D03*
X155579999Y-47259999D03*
X156429999Y-47259999D03*
X157279999Y-47259999D03*
X158129999Y-47259999D03*
X158979999Y-47259999D03*
X159829999Y-47259999D03*
X160679999Y-47259999D03*
X161529999Y-47259999D03*
X162379999Y-47259999D03*
X163229999Y-47259999D03*
X164079999Y-47259999D03*
X164929999Y-47259999D03*
X165779999Y-47259999D03*
X166629999Y-47259999D03*
X167479999Y-47259999D03*
X168329999Y-47259999D03*
X169179999Y-47259999D03*
X170029999Y-47259999D03*
X170879999Y-47259999D03*
X171729999Y-47259999D03*
X172579999Y-47259999D03*
X173429999Y-47259999D03*
X174279999Y-47259999D03*
X180229999Y-47259999D03*
X181079999Y-47259999D03*
X181929999Y-47259999D03*
X182779999Y-47259999D03*
X183629999Y-47259999D03*
X184479999Y-47259999D03*
X185329999Y-47259999D03*
X186179999Y-47259999D03*
X187029999Y-47259999D03*
X187879999Y-47259999D03*
X188729999Y-47259999D03*
X189579999Y-47259999D03*
X190429999Y-47259999D03*
X191279999Y-47259999D03*
X192129999Y-47259999D03*
X192979999Y-47259999D03*
X193829999Y-47259999D03*
X194679999Y-47259999D03*
X195529999Y-47259999D03*
X196379999Y-47259999D03*
X197229999Y-47259999D03*
X198079999Y-47259999D03*
X198929999Y-47259999D03*
X199779999Y-47259999D03*
X200629999Y-47259999D03*
X201479999Y-47259999D03*
X202329999Y-47259999D03*
X203179999Y-47259999D03*
X204029999Y-47259999D03*
X204879999Y-47259999D03*
X205729999Y-47259999D03*
X206579999Y-47259999D03*
X207429999Y-47259999D03*
X208279999Y-47259999D03*
X209129999Y-47259999D03*
X209979999Y-47259999D03*
X210829999Y-47259999D03*
X211679999Y-47259999D03*
X212529999Y-47259999D03*
X213379999Y-47259999D03*
X214229999Y-47259999D03*
X215079999Y-47259999D03*
X215929999Y-47259999D03*
X216779999Y-47259999D03*
X217629999Y-47259999D03*
X218479999Y-47259999D03*
X219329999Y-47259999D03*
X220179999Y-47259999D03*
X221029999Y-47259999D03*
X221879999Y-47259999D03*
X222729999Y-47259999D03*
X223579999Y-47259999D03*
X224429999Y-47259999D03*
X225279999Y-47259999D03*
X226129999Y-47259999D03*
X226979999Y-47259999D03*
X227829999Y-47259999D03*
X228679999Y-47259999D03*
X229529999Y-47259999D03*
X230379999Y-47259999D03*
X231229999Y-47259999D03*
X232079999Y-47259999D03*
X232929999Y-47259999D03*
X233779999Y-47259999D03*
X234629999Y-47259999D03*
X235479999Y-47259999D03*
X236329999Y-47259999D03*
X237179999Y-47259999D03*
X238029999Y-47259999D03*
%TD*%
D10*
%TO.C,U22*%
X158684000Y-63510000D03*
D11*
X159184000Y-63510000D03*
X159684000Y-63510000D03*
D10*
X160184000Y-63510000D03*
D12*
X160334000Y-62835000D03*
D10*
X160184000Y-62160000D03*
D11*
X159684000Y-62160000D03*
X159184000Y-62160000D03*
D10*
X158684000Y-62160000D03*
D12*
X158534000Y-62835000D03*
%TD*%
D15*
%TO.C,U20*%
X165199999Y-56499999D03*
X165199999Y-57149999D03*
X165199999Y-57799999D03*
X167099999Y-57799999D03*
X167099999Y-57149999D03*
X167099999Y-56499999D03*
%TD*%
D16*
%TO.C,C2*%
X174970000Y-60440000D03*
X174970000Y-58890000D03*
%TD*%
D10*
%TO.C,U4*%
X166171000Y-60490000D03*
D11*
X166671000Y-60490000D03*
X167171000Y-60490000D03*
D10*
X167671000Y-60490000D03*
D12*
X167821000Y-59815000D03*
D10*
X167671000Y-59140000D03*
D11*
X167171000Y-59140000D03*
X166671000Y-59140000D03*
D10*
X166171000Y-59140000D03*
D12*
X166021000Y-59815000D03*
%TD*%
D15*
%TO.C,U31*%
X168474999Y-53599999D03*
X168474999Y-54249999D03*
X168474999Y-54899999D03*
X170374999Y-54899999D03*
X170374999Y-54249999D03*
X170374999Y-53599999D03*
%TD*%
D17*
%TO.C,C3*%
X178595000Y-59105000D03*
X177045000Y-59105000D03*
%TD*%
D15*
%TO.C,U14*%
X158704999Y-53599999D03*
X158704999Y-54249999D03*
X158704999Y-54899999D03*
X160604999Y-54899999D03*
X160604999Y-54249999D03*
X160604999Y-53599999D03*
%TD*%
D18*
%TO.C,U3*%
X176662500Y-60325000D03*
X176662500Y-61275000D03*
X176662500Y-62225000D03*
X178937500Y-62225000D03*
X178937500Y-60325000D03*
%TD*%
D15*
%TO.C,U13*%
X165199999Y-53599999D03*
X165199999Y-54249999D03*
X165199999Y-54899999D03*
X167099999Y-54899999D03*
X167099999Y-54249999D03*
X167099999Y-53599999D03*
%TD*%
%TO.C,U16*%
X161954999Y-56489999D03*
X161954999Y-57139999D03*
X161954999Y-57789999D03*
X163854999Y-57789999D03*
X163854999Y-57139999D03*
X163854999Y-56489999D03*
%TD*%
%TO.C,U32*%
X158684999Y-56484999D03*
X158684999Y-57134999D03*
X158684999Y-57784999D03*
X160584999Y-57784999D03*
X160584999Y-57134999D03*
X160584999Y-56484999D03*
%TD*%
D10*
%TO.C,U25*%
X167671000Y-63530000D03*
D11*
X168171000Y-63530000D03*
X168671000Y-63530000D03*
D10*
X169171000Y-63530000D03*
D12*
X169321000Y-62855000D03*
D10*
X169171000Y-62180000D03*
D11*
X168671000Y-62180000D03*
X168171000Y-62180000D03*
D10*
X167671000Y-62180000D03*
D12*
X167521000Y-62855000D03*
%TD*%
D10*
%TO.C,U7*%
X161658000Y-63520000D03*
D11*
X162158000Y-63520000D03*
X162658000Y-63520000D03*
D10*
X163158000Y-63520000D03*
D12*
X163308000Y-62845000D03*
D10*
X163158000Y-62170000D03*
D11*
X162658000Y-62170000D03*
X162158000Y-62170000D03*
D10*
X161658000Y-62170000D03*
D12*
X161508000Y-62845000D03*
%TD*%
D10*
%TO.C,U9*%
X163133000Y-60485000D03*
D11*
X163633000Y-60485000D03*
X164133000Y-60485000D03*
D10*
X164633000Y-60485000D03*
D12*
X164783000Y-59810000D03*
D10*
X164633000Y-59135000D03*
D11*
X164133000Y-59135000D03*
X163633000Y-59135000D03*
D10*
X163133000Y-59135000D03*
D12*
X162983000Y-59810000D03*
%TD*%
D15*
%TO.C,U29*%
X168444999Y-56499999D03*
X168444999Y-57149999D03*
X168444999Y-57799999D03*
X170344999Y-57799999D03*
X170344999Y-57149999D03*
X170344999Y-56499999D03*
%TD*%
%TO.C,U18*%
X161954999Y-53614999D03*
X161954999Y-54264999D03*
X161954999Y-54914999D03*
X163854999Y-54914999D03*
X163854999Y-54264999D03*
X163854999Y-53614999D03*
%TD*%
M02*
